G04 #@! TF.GenerationSoftware,KiCad,Pcbnew,8.0.4*
G04 #@! TF.CreationDate,2024-08-25T09:48:10+02:00*
G04 #@! TF.ProjectId,RTC-Messbruecke-from-template,5254432d-4d65-4737-9362-727565636b65,rev?*
G04 #@! TF.SameCoordinates,Original*
G04 #@! TF.FileFunction,Paste,Top*
G04 #@! TF.FilePolarity,Positive*
%FSLAX46Y46*%
G04 Gerber Fmt 4.6, Leading zero omitted, Abs format (unit mm)*
G04 Created by KiCad (PCBNEW 8.0.4) date 2024-08-25 09:48:10*
%MOMM*%
%LPD*%
G01*
G04 APERTURE LIST*
G04 Aperture macros list*
%AMRoundRect*
0 Rectangle with rounded corners*
0 $1 Rounding radius*
0 $2 $3 $4 $5 $6 $7 $8 $9 X,Y pos of 4 corners*
0 Add a 4 corners polygon primitive as box body*
4,1,4,$2,$3,$4,$5,$6,$7,$8,$9,$2,$3,0*
0 Add four circle primitives for the rounded corners*
1,1,$1+$1,$2,$3*
1,1,$1+$1,$4,$5*
1,1,$1+$1,$6,$7*
1,1,$1+$1,$8,$9*
0 Add four rect primitives between the rounded corners*
20,1,$1+$1,$2,$3,$4,$5,0*
20,1,$1+$1,$4,$5,$6,$7,0*
20,1,$1+$1,$6,$7,$8,$9,0*
20,1,$1+$1,$8,$9,$2,$3,0*%
G04 Aperture macros list end*
%ADD10RoundRect,0.250000X0.625000X-0.312500X0.625000X0.312500X-0.625000X0.312500X-0.625000X-0.312500X0*%
%ADD11RoundRect,0.250000X-0.325000X-0.650000X0.325000X-0.650000X0.325000X0.650000X-0.325000X0.650000X0*%
%ADD12RoundRect,0.250000X0.625000X-0.400000X0.625000X0.400000X-0.625000X0.400000X-0.625000X-0.400000X0*%
%ADD13RoundRect,0.250001X-1.074999X0.462499X-1.074999X-0.462499X1.074999X-0.462499X1.074999X0.462499X0*%
%ADD14RoundRect,0.250000X-0.625000X0.312500X-0.625000X-0.312500X0.625000X-0.312500X0.625000X0.312500X0*%
%ADD15RoundRect,0.250000X-0.650000X0.325000X-0.650000X-0.325000X0.650000X-0.325000X0.650000X0.325000X0*%
%ADD16RoundRect,0.250000X1.000000X0.650000X-1.000000X0.650000X-1.000000X-0.650000X1.000000X-0.650000X0*%
%ADD17RoundRect,0.150000X0.150000X-0.587500X0.150000X0.587500X-0.150000X0.587500X-0.150000X-0.587500X0*%
%ADD18RoundRect,0.250000X0.650000X-0.325000X0.650000X0.325000X-0.650000X0.325000X-0.650000X-0.325000X0*%
%ADD19RoundRect,0.250000X0.412500X0.650000X-0.412500X0.650000X-0.412500X-0.650000X0.412500X-0.650000X0*%
%ADD20RoundRect,0.250000X0.650000X-0.412500X0.650000X0.412500X-0.650000X0.412500X-0.650000X-0.412500X0*%
%ADD21RoundRect,0.150000X-0.825000X-0.150000X0.825000X-0.150000X0.825000X0.150000X-0.825000X0.150000X0*%
%ADD22RoundRect,0.250000X-1.950000X-1.000000X1.950000X-1.000000X1.950000X1.000000X-1.950000X1.000000X0*%
G04 APERTURE END LIST*
D10*
X133410000Y-61725000D03*
X133410000Y-58800000D03*
D11*
X141374999Y-57550000D03*
X144325001Y-57550000D03*
D10*
X148550000Y-69725000D03*
X148550000Y-66800000D03*
D12*
X146050000Y-85624000D03*
X146050000Y-82524000D03*
D13*
X146050000Y-88428500D03*
X146050000Y-91403500D03*
D12*
X143510000Y-85624000D03*
X143510000Y-82524000D03*
D14*
X130120000Y-58800000D03*
X130120000Y-61725000D03*
D15*
X121750000Y-73024999D03*
X121750000Y-75975001D03*
D12*
X106172000Y-55398000D03*
X106172000Y-52298000D03*
D10*
X151890000Y-61712500D03*
X151890000Y-58787500D03*
X155130000Y-69725000D03*
X155130000Y-66800000D03*
D14*
X158470000Y-58787500D03*
X158470000Y-61712500D03*
D16*
X112890000Y-87300000D03*
X108890000Y-87300000D03*
D17*
X115587500Y-71112500D03*
X117487500Y-71112500D03*
X116537500Y-69237499D03*
D10*
X130120000Y-69725000D03*
X130120000Y-66800000D03*
D14*
X136700000Y-58800000D03*
X136700000Y-61725000D03*
X155180000Y-58787500D03*
X155180000Y-61712500D03*
D10*
X136700000Y-69725000D03*
X136700000Y-66800000D03*
D15*
X110000000Y-73224999D03*
X110000000Y-76175001D03*
D13*
X141732000Y-88428500D03*
X141732000Y-91403500D03*
D18*
X121750000Y-70475001D03*
X121750000Y-67524999D03*
D10*
X158420000Y-69725000D03*
X158420000Y-66800000D03*
D14*
X151840000Y-66800000D03*
X151840000Y-69725000D03*
D19*
X145834500Y-94234000D03*
X142709500Y-94234000D03*
D20*
X120800000Y-86812500D03*
X120800000Y-83687500D03*
D14*
X148600000Y-58787500D03*
X148600000Y-61712500D03*
X133410000Y-66800000D03*
X133410000Y-69725000D03*
D21*
X140273000Y-60452000D03*
X140273000Y-61722000D03*
X140273000Y-62992000D03*
X140273000Y-64262000D03*
X140273000Y-65532000D03*
X140273000Y-66802000D03*
X140273000Y-68072000D03*
X145223000Y-68072000D03*
X145223000Y-66802000D03*
X145223000Y-65532000D03*
X145223000Y-64262000D03*
X145223000Y-62992000D03*
X145223000Y-61722000D03*
X145223000Y-60452000D03*
D12*
X108966000Y-55398000D03*
X108966000Y-52298000D03*
D10*
X126830000Y-69725000D03*
X126830000Y-66800000D03*
D14*
X126830000Y-58800000D03*
X126830000Y-61725000D03*
D18*
X110000000Y-71100000D03*
X110000000Y-68149998D03*
D22*
X126864000Y-87376000D03*
X135264000Y-87376000D03*
D14*
X122700000Y-58800000D03*
X122700000Y-61725000D03*
M02*
