M48
; DRILL file {KiCad 8.0.4} date 2024-08-25T09:49:06+0200
; FORMAT={-:-/ absolute / metric / decimal}
; #@! TF.CreationDate,2024-08-25T09:49:06+02:00
; #@! TF.GenerationSoftware,Kicad,Pcbnew,8.0.4
; #@! TF.FileFunction,Plated,1,2,PTH
FMAT,2
METRIC
; #@! TA.AperFunction,Plated,PTH,ViaDrill
T1C0.400
; #@! TA.AperFunction,Plated,PTH,ComponentDrill
T2C1.000
; #@! TA.AperFunction,Plated,PTH,ComponentDrill
T3C1.100
%
G90
G05
T1
X108.3Y-71.1
X111.95Y-71.1
X112.9Y-71.1
X120.6Y-58.8
X128.5Y-60.25
X128.5Y-68.25
X138.75Y-64.25
X139.875Y-57.55
X141.122Y-72.346
X141.25Y-70.35
X141.25Y-69.35
X141.375Y-56.05
X141.375Y-59.05
X141.75Y-64.25
X141.775Y-65.525
X141.792Y-62.992
X145.25Y-71.347
X156.8Y-68.55
X156.85Y-59.85
X160.1Y-61.75
X160.1Y-66.8
T2
X106.35Y-49.2
X108.89Y-49.2
X111.43Y-49.2
X113.97Y-49.2
X116.603Y-97.127
X118.796Y-49.2
X119.143Y-97.127
X121.336Y-49.2
X121.683Y-97.127
X123.876Y-49.2
X126.416Y-49.2
X127.94Y-97.46
X128.956Y-49.2
X130.48Y-97.46
X131.496Y-49.2
X133.02Y-97.46
X134.036Y-49.2
X135.56Y-97.46
X136.576Y-49.2
X138.1Y-97.46
X139.116Y-49.2
X140.64Y-97.46
X141.656Y-49.2
X143.18Y-97.46
X145.72Y-49.2
X145.72Y-97.46
X148.26Y-49.2
X150.8Y-49.2
X150.8Y-97.46
X153.34Y-49.2
X153.34Y-97.46
X155.88Y-49.2
X155.88Y-97.46
X158.42Y-49.2
X158.42Y-97.46
X160.96Y-49.2
X160.96Y-97.46
X163.5Y-49.2
X163.5Y-97.46
T3
X102.8Y-95.02
X105.34Y-95.02
X107.88Y-95.02
X110.42Y-95.02
X165.1Y-53.594
X165.1Y-56.134
X165.1Y-58.674
X165.1Y-61.214
X165.1Y-63.754
X165.1Y-66.294
X165.1Y-68.834
X165.1Y-71.374
X165.1Y-82.296
X165.1Y-84.836
X165.1Y-87.376
X165.1Y-89.916
M30
