G04 #@! TF.GenerationSoftware,KiCad,Pcbnew,8.0.4*
G04 #@! TF.CreationDate,2024-08-25T09:48:10+02:00*
G04 #@! TF.ProjectId,RTC-Messbruecke-from-template,5254432d-4d65-4737-9362-727565636b65,rev?*
G04 #@! TF.SameCoordinates,Original*
G04 #@! TF.FileFunction,Legend,Top*
G04 #@! TF.FilePolarity,Positive*
%FSLAX46Y46*%
G04 Gerber Fmt 4.6, Leading zero omitted, Abs format (unit mm)*
G04 Created by KiCad (PCBNEW 8.0.4) date 2024-08-25 09:48:10*
%MOMM*%
%LPD*%
G01*
G04 APERTURE LIST*
G04 Aperture macros list*
%AMRoundRect*
0 Rectangle with rounded corners*
0 $1 Rounding radius*
0 $2 $3 $4 $5 $6 $7 $8 $9 X,Y pos of 4 corners*
0 Add a 4 corners polygon primitive as box body*
4,1,4,$2,$3,$4,$5,$6,$7,$8,$9,$2,$3,0*
0 Add four circle primitives for the rounded corners*
1,1,$1+$1,$2,$3*
1,1,$1+$1,$4,$5*
1,1,$1+$1,$6,$7*
1,1,$1+$1,$8,$9*
0 Add four rect primitives between the rounded corners*
20,1,$1+$1,$2,$3,$4,$5,0*
20,1,$1+$1,$4,$5,$6,$7,0*
20,1,$1+$1,$6,$7,$8,$9,0*
20,1,$1+$1,$8,$9,$2,$3,0*%
G04 Aperture macros list end*
%ADD10C,0.150000*%
%ADD11C,0.100000*%
%ADD12C,0.120000*%
%ADD13R,1.700000X1.700000*%
%ADD14O,1.700000X1.700000*%
%ADD15RoundRect,0.250000X0.625000X-0.312500X0.625000X0.312500X-0.625000X0.312500X-0.625000X-0.312500X0*%
%ADD16RoundRect,0.250000X-0.325000X-0.650000X0.325000X-0.650000X0.325000X0.650000X-0.325000X0.650000X0*%
%ADD17RoundRect,0.250000X0.625000X-0.400000X0.625000X0.400000X-0.625000X0.400000X-0.625000X-0.400000X0*%
%ADD18RoundRect,0.250001X-1.074999X0.462499X-1.074999X-0.462499X1.074999X-0.462499X1.074999X0.462499X0*%
%ADD19RoundRect,0.250000X-0.625000X0.312500X-0.625000X-0.312500X0.625000X-0.312500X0.625000X0.312500X0*%
%ADD20RoundRect,0.250000X-0.650000X0.325000X-0.650000X-0.325000X0.650000X-0.325000X0.650000X0.325000X0*%
%ADD21R,2.200000X2.200000*%
%ADD22C,2.200000*%
%ADD23RoundRect,0.250000X1.000000X0.650000X-1.000000X0.650000X-1.000000X-0.650000X1.000000X-0.650000X0*%
%ADD24RoundRect,0.150000X0.150000X-0.587500X0.150000X0.587500X-0.150000X0.587500X-0.150000X-0.587500X0*%
%ADD25RoundRect,0.250000X0.650000X-0.325000X0.650000X0.325000X-0.650000X0.325000X-0.650000X-0.325000X0*%
%ADD26RoundRect,0.250000X0.412500X0.650000X-0.412500X0.650000X-0.412500X-0.650000X0.412500X-0.650000X0*%
%ADD27RoundRect,0.250000X0.650000X-0.412500X0.650000X0.412500X-0.650000X0.412500X-0.650000X-0.412500X0*%
%ADD28RoundRect,0.150000X-0.825000X-0.150000X0.825000X-0.150000X0.825000X0.150000X-0.825000X0.150000X0*%
%ADD29R,1.500000X2.300000*%
%ADD30O,1.500000X2.300000*%
%ADD31RoundRect,0.250000X-1.950000X-1.000000X1.950000X-1.000000X1.950000X1.000000X-1.950000X1.000000X0*%
G04 APERTURE END LIST*
D10*
X161194295Y-70403696D02*
X160813342Y-70670363D01*
X161194295Y-70860839D02*
X160394295Y-70860839D01*
X160394295Y-70860839D02*
X160394295Y-70556077D01*
X160394295Y-70556077D02*
X160432390Y-70479887D01*
X160432390Y-70479887D02*
X160470485Y-70441792D01*
X160470485Y-70441792D02*
X160546676Y-70403696D01*
X160546676Y-70403696D02*
X160660961Y-70403696D01*
X160660961Y-70403696D02*
X160737152Y-70441792D01*
X160737152Y-70441792D02*
X160775247Y-70479887D01*
X160775247Y-70479887D02*
X160813342Y-70556077D01*
X160813342Y-70556077D02*
X160813342Y-70860839D01*
X160394295Y-70175125D02*
X160394295Y-69717982D01*
X161194295Y-69946554D02*
X160394295Y-69946554D01*
X161118104Y-68994172D02*
X161156200Y-69032268D01*
X161156200Y-69032268D02*
X161194295Y-69146553D01*
X161194295Y-69146553D02*
X161194295Y-69222744D01*
X161194295Y-69222744D02*
X161156200Y-69337030D01*
X161156200Y-69337030D02*
X161080009Y-69413220D01*
X161080009Y-69413220D02*
X161003819Y-69451315D01*
X161003819Y-69451315D02*
X160851438Y-69489411D01*
X160851438Y-69489411D02*
X160737152Y-69489411D01*
X160737152Y-69489411D02*
X160584771Y-69451315D01*
X160584771Y-69451315D02*
X160508580Y-69413220D01*
X160508580Y-69413220D02*
X160432390Y-69337030D01*
X160432390Y-69337030D02*
X160394295Y-69222744D01*
X160394295Y-69222744D02*
X160394295Y-69146553D01*
X160394295Y-69146553D02*
X160432390Y-69032268D01*
X160432390Y-69032268D02*
X160470485Y-68994172D01*
X160660961Y-68308458D02*
X161194295Y-68308458D01*
X160356200Y-68498934D02*
X160927628Y-68689411D01*
X160927628Y-68689411D02*
X160927628Y-68194172D01*
X161194295Y-65503696D02*
X160813342Y-65770363D01*
X161194295Y-65960839D02*
X160394295Y-65960839D01*
X160394295Y-65960839D02*
X160394295Y-65656077D01*
X160394295Y-65656077D02*
X160432390Y-65579887D01*
X160432390Y-65579887D02*
X160470485Y-65541792D01*
X160470485Y-65541792D02*
X160546676Y-65503696D01*
X160546676Y-65503696D02*
X160660961Y-65503696D01*
X160660961Y-65503696D02*
X160737152Y-65541792D01*
X160737152Y-65541792D02*
X160775247Y-65579887D01*
X160775247Y-65579887D02*
X160813342Y-65656077D01*
X160813342Y-65656077D02*
X160813342Y-65960839D01*
X160394295Y-65275125D02*
X160394295Y-64817982D01*
X161194295Y-65046554D02*
X160394295Y-65046554D01*
X161118104Y-64094172D02*
X161156200Y-64132268D01*
X161156200Y-64132268D02*
X161194295Y-64246553D01*
X161194295Y-64246553D02*
X161194295Y-64322744D01*
X161194295Y-64322744D02*
X161156200Y-64437030D01*
X161156200Y-64437030D02*
X161080009Y-64513220D01*
X161080009Y-64513220D02*
X161003819Y-64551315D01*
X161003819Y-64551315D02*
X160851438Y-64589411D01*
X160851438Y-64589411D02*
X160737152Y-64589411D01*
X160737152Y-64589411D02*
X160584771Y-64551315D01*
X160584771Y-64551315D02*
X160508580Y-64513220D01*
X160508580Y-64513220D02*
X160432390Y-64437030D01*
X160432390Y-64437030D02*
X160394295Y-64322744D01*
X160394295Y-64322744D02*
X160394295Y-64246553D01*
X160394295Y-64246553D02*
X160432390Y-64132268D01*
X160432390Y-64132268D02*
X160470485Y-64094172D01*
X160394295Y-63827506D02*
X160394295Y-63332268D01*
X160394295Y-63332268D02*
X160699057Y-63598934D01*
X160699057Y-63598934D02*
X160699057Y-63484649D01*
X160699057Y-63484649D02*
X160737152Y-63408458D01*
X160737152Y-63408458D02*
X160775247Y-63370363D01*
X160775247Y-63370363D02*
X160851438Y-63332268D01*
X160851438Y-63332268D02*
X161041914Y-63332268D01*
X161041914Y-63332268D02*
X161118104Y-63370363D01*
X161118104Y-63370363D02*
X161156200Y-63408458D01*
X161156200Y-63408458D02*
X161194295Y-63484649D01*
X161194295Y-63484649D02*
X161194295Y-63713220D01*
X161194295Y-63713220D02*
X161156200Y-63789411D01*
X161156200Y-63789411D02*
X161118104Y-63827506D01*
X161194295Y-60603696D02*
X160813342Y-60870363D01*
X161194295Y-61060839D02*
X160394295Y-61060839D01*
X160394295Y-61060839D02*
X160394295Y-60756077D01*
X160394295Y-60756077D02*
X160432390Y-60679887D01*
X160432390Y-60679887D02*
X160470485Y-60641792D01*
X160470485Y-60641792D02*
X160546676Y-60603696D01*
X160546676Y-60603696D02*
X160660961Y-60603696D01*
X160660961Y-60603696D02*
X160737152Y-60641792D01*
X160737152Y-60641792D02*
X160775247Y-60679887D01*
X160775247Y-60679887D02*
X160813342Y-60756077D01*
X160813342Y-60756077D02*
X160813342Y-61060839D01*
X160394295Y-60375125D02*
X160394295Y-59917982D01*
X161194295Y-60146554D02*
X160394295Y-60146554D01*
X161118104Y-59194172D02*
X161156200Y-59232268D01*
X161156200Y-59232268D02*
X161194295Y-59346553D01*
X161194295Y-59346553D02*
X161194295Y-59422744D01*
X161194295Y-59422744D02*
X161156200Y-59537030D01*
X161156200Y-59537030D02*
X161080009Y-59613220D01*
X161080009Y-59613220D02*
X161003819Y-59651315D01*
X161003819Y-59651315D02*
X160851438Y-59689411D01*
X160851438Y-59689411D02*
X160737152Y-59689411D01*
X160737152Y-59689411D02*
X160584771Y-59651315D01*
X160584771Y-59651315D02*
X160508580Y-59613220D01*
X160508580Y-59613220D02*
X160432390Y-59537030D01*
X160432390Y-59537030D02*
X160394295Y-59422744D01*
X160394295Y-59422744D02*
X160394295Y-59346553D01*
X160394295Y-59346553D02*
X160432390Y-59232268D01*
X160432390Y-59232268D02*
X160470485Y-59194172D01*
X160470485Y-58889411D02*
X160432390Y-58851315D01*
X160432390Y-58851315D02*
X160394295Y-58775125D01*
X160394295Y-58775125D02*
X160394295Y-58584649D01*
X160394295Y-58584649D02*
X160432390Y-58508458D01*
X160432390Y-58508458D02*
X160470485Y-58470363D01*
X160470485Y-58470363D02*
X160546676Y-58432268D01*
X160546676Y-58432268D02*
X160622866Y-58432268D01*
X160622866Y-58432268D02*
X160737152Y-58470363D01*
X160737152Y-58470363D02*
X161194295Y-58927506D01*
X161194295Y-58927506D02*
X161194295Y-58432268D01*
X161194295Y-55603696D02*
X160813342Y-55870363D01*
X161194295Y-56060839D02*
X160394295Y-56060839D01*
X160394295Y-56060839D02*
X160394295Y-55756077D01*
X160394295Y-55756077D02*
X160432390Y-55679887D01*
X160432390Y-55679887D02*
X160470485Y-55641792D01*
X160470485Y-55641792D02*
X160546676Y-55603696D01*
X160546676Y-55603696D02*
X160660961Y-55603696D01*
X160660961Y-55603696D02*
X160737152Y-55641792D01*
X160737152Y-55641792D02*
X160775247Y-55679887D01*
X160775247Y-55679887D02*
X160813342Y-55756077D01*
X160813342Y-55756077D02*
X160813342Y-56060839D01*
X160394295Y-55375125D02*
X160394295Y-54917982D01*
X161194295Y-55146554D02*
X160394295Y-55146554D01*
X161118104Y-54194172D02*
X161156200Y-54232268D01*
X161156200Y-54232268D02*
X161194295Y-54346553D01*
X161194295Y-54346553D02*
X161194295Y-54422744D01*
X161194295Y-54422744D02*
X161156200Y-54537030D01*
X161156200Y-54537030D02*
X161080009Y-54613220D01*
X161080009Y-54613220D02*
X161003819Y-54651315D01*
X161003819Y-54651315D02*
X160851438Y-54689411D01*
X160851438Y-54689411D02*
X160737152Y-54689411D01*
X160737152Y-54689411D02*
X160584771Y-54651315D01*
X160584771Y-54651315D02*
X160508580Y-54613220D01*
X160508580Y-54613220D02*
X160432390Y-54537030D01*
X160432390Y-54537030D02*
X160394295Y-54422744D01*
X160394295Y-54422744D02*
X160394295Y-54346553D01*
X160394295Y-54346553D02*
X160432390Y-54232268D01*
X160432390Y-54232268D02*
X160470485Y-54194172D01*
X161194295Y-53432268D02*
X161194295Y-53889411D01*
X161194295Y-53660839D02*
X160394295Y-53660839D01*
X160394295Y-53660839D02*
X160508580Y-53737030D01*
X160508580Y-53737030D02*
X160584771Y-53813220D01*
X160584771Y-53813220D02*
X160622866Y-53889411D01*
X158339160Y-81574440D02*
X158815350Y-81574440D01*
X158243922Y-81860155D02*
X158577255Y-80860155D01*
X158577255Y-80860155D02*
X158910588Y-81860155D01*
X159434398Y-80860155D02*
X159624874Y-80860155D01*
X159624874Y-80860155D02*
X159720112Y-80907774D01*
X159720112Y-80907774D02*
X159815350Y-81003012D01*
X159815350Y-81003012D02*
X159862969Y-81193488D01*
X159862969Y-81193488D02*
X159862969Y-81526821D01*
X159862969Y-81526821D02*
X159815350Y-81717297D01*
X159815350Y-81717297D02*
X159720112Y-81812536D01*
X159720112Y-81812536D02*
X159624874Y-81860155D01*
X159624874Y-81860155D02*
X159434398Y-81860155D01*
X159434398Y-81860155D02*
X159339160Y-81812536D01*
X159339160Y-81812536D02*
X159243922Y-81717297D01*
X159243922Y-81717297D02*
X159196303Y-81526821D01*
X159196303Y-81526821D02*
X159196303Y-81193488D01*
X159196303Y-81193488D02*
X159243922Y-81003012D01*
X159243922Y-81003012D02*
X159339160Y-80907774D01*
X159339160Y-80907774D02*
X159434398Y-80860155D01*
X160815350Y-81860155D02*
X160243922Y-81860155D01*
X160529636Y-81860155D02*
X160529636Y-80860155D01*
X160529636Y-80860155D02*
X160434398Y-81003012D01*
X160434398Y-81003012D02*
X160339160Y-81098250D01*
X160339160Y-81098250D02*
X160243922Y-81145869D01*
X158339160Y-84794328D02*
X158815350Y-84794328D01*
X158243922Y-85080043D02*
X158577255Y-84080043D01*
X158577255Y-84080043D02*
X158910588Y-85080043D01*
X159434398Y-84080043D02*
X159624874Y-84080043D01*
X159624874Y-84080043D02*
X159720112Y-84127662D01*
X159720112Y-84127662D02*
X159815350Y-84222900D01*
X159815350Y-84222900D02*
X159862969Y-84413376D01*
X159862969Y-84413376D02*
X159862969Y-84746709D01*
X159862969Y-84746709D02*
X159815350Y-84937185D01*
X159815350Y-84937185D02*
X159720112Y-85032424D01*
X159720112Y-85032424D02*
X159624874Y-85080043D01*
X159624874Y-85080043D02*
X159434398Y-85080043D01*
X159434398Y-85080043D02*
X159339160Y-85032424D01*
X159339160Y-85032424D02*
X159243922Y-84937185D01*
X159243922Y-84937185D02*
X159196303Y-84746709D01*
X159196303Y-84746709D02*
X159196303Y-84413376D01*
X159196303Y-84413376D02*
X159243922Y-84222900D01*
X159243922Y-84222900D02*
X159339160Y-84127662D01*
X159339160Y-84127662D02*
X159434398Y-84080043D01*
X160243922Y-84175281D02*
X160291541Y-84127662D01*
X160291541Y-84127662D02*
X160386779Y-84080043D01*
X160386779Y-84080043D02*
X160624874Y-84080043D01*
X160624874Y-84080043D02*
X160720112Y-84127662D01*
X160720112Y-84127662D02*
X160767731Y-84175281D01*
X160767731Y-84175281D02*
X160815350Y-84270519D01*
X160815350Y-84270519D02*
X160815350Y-84365757D01*
X160815350Y-84365757D02*
X160767731Y-84508614D01*
X160767731Y-84508614D02*
X160196303Y-85080043D01*
X160196303Y-85080043D02*
X160815350Y-85080043D01*
X158339160Y-88014216D02*
X158815350Y-88014216D01*
X158243922Y-88299931D02*
X158577255Y-87299931D01*
X158577255Y-87299931D02*
X158910588Y-88299931D01*
X159434398Y-87299931D02*
X159624874Y-87299931D01*
X159624874Y-87299931D02*
X159720112Y-87347550D01*
X159720112Y-87347550D02*
X159815350Y-87442788D01*
X159815350Y-87442788D02*
X159862969Y-87633264D01*
X159862969Y-87633264D02*
X159862969Y-87966597D01*
X159862969Y-87966597D02*
X159815350Y-88157073D01*
X159815350Y-88157073D02*
X159720112Y-88252312D01*
X159720112Y-88252312D02*
X159624874Y-88299931D01*
X159624874Y-88299931D02*
X159434398Y-88299931D01*
X159434398Y-88299931D02*
X159339160Y-88252312D01*
X159339160Y-88252312D02*
X159243922Y-88157073D01*
X159243922Y-88157073D02*
X159196303Y-87966597D01*
X159196303Y-87966597D02*
X159196303Y-87633264D01*
X159196303Y-87633264D02*
X159243922Y-87442788D01*
X159243922Y-87442788D02*
X159339160Y-87347550D01*
X159339160Y-87347550D02*
X159434398Y-87299931D01*
X160196303Y-87299931D02*
X160815350Y-87299931D01*
X160815350Y-87299931D02*
X160482017Y-87680883D01*
X160482017Y-87680883D02*
X160624874Y-87680883D01*
X160624874Y-87680883D02*
X160720112Y-87728502D01*
X160720112Y-87728502D02*
X160767731Y-87776121D01*
X160767731Y-87776121D02*
X160815350Y-87871359D01*
X160815350Y-87871359D02*
X160815350Y-88109454D01*
X160815350Y-88109454D02*
X160767731Y-88204692D01*
X160767731Y-88204692D02*
X160720112Y-88252312D01*
X160720112Y-88252312D02*
X160624874Y-88299931D01*
X160624874Y-88299931D02*
X160339160Y-88299931D01*
X160339160Y-88299931D02*
X160243922Y-88252312D01*
X160243922Y-88252312D02*
X160196303Y-88204692D01*
X158339160Y-91234104D02*
X158815350Y-91234104D01*
X158243922Y-91519819D02*
X158577255Y-90519819D01*
X158577255Y-90519819D02*
X158910588Y-91519819D01*
X159434398Y-90519819D02*
X159624874Y-90519819D01*
X159624874Y-90519819D02*
X159720112Y-90567438D01*
X159720112Y-90567438D02*
X159815350Y-90662676D01*
X159815350Y-90662676D02*
X159862969Y-90853152D01*
X159862969Y-90853152D02*
X159862969Y-91186485D01*
X159862969Y-91186485D02*
X159815350Y-91376961D01*
X159815350Y-91376961D02*
X159720112Y-91472200D01*
X159720112Y-91472200D02*
X159624874Y-91519819D01*
X159624874Y-91519819D02*
X159434398Y-91519819D01*
X159434398Y-91519819D02*
X159339160Y-91472200D01*
X159339160Y-91472200D02*
X159243922Y-91376961D01*
X159243922Y-91376961D02*
X159196303Y-91186485D01*
X159196303Y-91186485D02*
X159196303Y-90853152D01*
X159196303Y-90853152D02*
X159243922Y-90662676D01*
X159243922Y-90662676D02*
X159339160Y-90567438D01*
X159339160Y-90567438D02*
X159434398Y-90519819D01*
X160720112Y-90853152D02*
X160720112Y-91519819D01*
X160482017Y-90472200D02*
X160243922Y-91186485D01*
X160243922Y-91186485D02*
X160862969Y-91186485D01*
X148018667Y-89370819D02*
X148352000Y-90370819D01*
X148352000Y-90370819D02*
X148685333Y-89370819D01*
X149590095Y-90275580D02*
X149542476Y-90323200D01*
X149542476Y-90323200D02*
X149399619Y-90370819D01*
X149399619Y-90370819D02*
X149304381Y-90370819D01*
X149304381Y-90370819D02*
X149161524Y-90323200D01*
X149161524Y-90323200D02*
X149066286Y-90227961D01*
X149066286Y-90227961D02*
X149018667Y-90132723D01*
X149018667Y-90132723D02*
X148971048Y-89942247D01*
X148971048Y-89942247D02*
X148971048Y-89799390D01*
X148971048Y-89799390D02*
X149018667Y-89608914D01*
X149018667Y-89608914D02*
X149066286Y-89513676D01*
X149066286Y-89513676D02*
X149161524Y-89418438D01*
X149161524Y-89418438D02*
X149304381Y-89370819D01*
X149304381Y-89370819D02*
X149399619Y-89370819D01*
X149399619Y-89370819D02*
X149542476Y-89418438D01*
X149542476Y-89418438D02*
X149590095Y-89466057D01*
X150590095Y-90275580D02*
X150542476Y-90323200D01*
X150542476Y-90323200D02*
X150399619Y-90370819D01*
X150399619Y-90370819D02*
X150304381Y-90370819D01*
X150304381Y-90370819D02*
X150161524Y-90323200D01*
X150161524Y-90323200D02*
X150066286Y-90227961D01*
X150066286Y-90227961D02*
X150018667Y-90132723D01*
X150018667Y-90132723D02*
X149971048Y-89942247D01*
X149971048Y-89942247D02*
X149971048Y-89799390D01*
X149971048Y-89799390D02*
X150018667Y-89608914D01*
X150018667Y-89608914D02*
X150066286Y-89513676D01*
X150066286Y-89513676D02*
X150161524Y-89418438D01*
X150161524Y-89418438D02*
X150304381Y-89370819D01*
X150304381Y-89370819D02*
X150399619Y-89370819D01*
X150399619Y-89370819D02*
X150542476Y-89418438D01*
X150542476Y-89418438D02*
X150590095Y-89466057D01*
D11*
X100978382Y-99602704D02*
X100940286Y-99640800D01*
X100940286Y-99640800D02*
X100826001Y-99678895D01*
X100826001Y-99678895D02*
X100749810Y-99678895D01*
X100749810Y-99678895D02*
X100635524Y-99640800D01*
X100635524Y-99640800D02*
X100559334Y-99564609D01*
X100559334Y-99564609D02*
X100521239Y-99488419D01*
X100521239Y-99488419D02*
X100483143Y-99336038D01*
X100483143Y-99336038D02*
X100483143Y-99221752D01*
X100483143Y-99221752D02*
X100521239Y-99069371D01*
X100521239Y-99069371D02*
X100559334Y-98993180D01*
X100559334Y-98993180D02*
X100635524Y-98916990D01*
X100635524Y-98916990D02*
X100749810Y-98878895D01*
X100749810Y-98878895D02*
X100826001Y-98878895D01*
X100826001Y-98878895D02*
X100940286Y-98916990D01*
X100940286Y-98916990D02*
X100978382Y-98955085D01*
X101283143Y-99450323D02*
X101664096Y-99450323D01*
X101206953Y-99678895D02*
X101473620Y-98878895D01*
X101473620Y-98878895D02*
X101740286Y-99678895D01*
X102006953Y-99678895D02*
X102006953Y-98878895D01*
X102006953Y-98878895D02*
X102464096Y-99678895D01*
X102464096Y-99678895D02*
X102464096Y-98878895D01*
X103226000Y-99678895D02*
X102845048Y-99678895D01*
X102845048Y-99678895D02*
X102845048Y-98878895D01*
X104559334Y-99602704D02*
X104521238Y-99640800D01*
X104521238Y-99640800D02*
X104406953Y-99678895D01*
X104406953Y-99678895D02*
X104330762Y-99678895D01*
X104330762Y-99678895D02*
X104216476Y-99640800D01*
X104216476Y-99640800D02*
X104140286Y-99564609D01*
X104140286Y-99564609D02*
X104102191Y-99488419D01*
X104102191Y-99488419D02*
X104064095Y-99336038D01*
X104064095Y-99336038D02*
X104064095Y-99221752D01*
X104064095Y-99221752D02*
X104102191Y-99069371D01*
X104102191Y-99069371D02*
X104140286Y-98993180D01*
X104140286Y-98993180D02*
X104216476Y-98916990D01*
X104216476Y-98916990D02*
X104330762Y-98878895D01*
X104330762Y-98878895D02*
X104406953Y-98878895D01*
X104406953Y-98878895D02*
X104521238Y-98916990D01*
X104521238Y-98916990D02*
X104559334Y-98955085D01*
X104864095Y-99450323D02*
X105245048Y-99450323D01*
X104787905Y-99678895D02*
X105054572Y-98878895D01*
X105054572Y-98878895D02*
X105321238Y-99678895D01*
X105587905Y-99678895D02*
X105587905Y-98878895D01*
X105587905Y-98878895D02*
X106045048Y-99678895D01*
X106045048Y-99678895D02*
X106045048Y-98878895D01*
X106426000Y-99678895D02*
X106426000Y-98878895D01*
X106426000Y-99259847D02*
X106883143Y-99259847D01*
X106883143Y-99678895D02*
X106883143Y-98878895D01*
X108292666Y-98916990D02*
X108216476Y-98878895D01*
X108216476Y-98878895D02*
X108102190Y-98878895D01*
X108102190Y-98878895D02*
X107987904Y-98916990D01*
X107987904Y-98916990D02*
X107911714Y-98993180D01*
X107911714Y-98993180D02*
X107873619Y-99069371D01*
X107873619Y-99069371D02*
X107835523Y-99221752D01*
X107835523Y-99221752D02*
X107835523Y-99336038D01*
X107835523Y-99336038D02*
X107873619Y-99488419D01*
X107873619Y-99488419D02*
X107911714Y-99564609D01*
X107911714Y-99564609D02*
X107987904Y-99640800D01*
X107987904Y-99640800D02*
X108102190Y-99678895D01*
X108102190Y-99678895D02*
X108178381Y-99678895D01*
X108178381Y-99678895D02*
X108292666Y-99640800D01*
X108292666Y-99640800D02*
X108330762Y-99602704D01*
X108330762Y-99602704D02*
X108330762Y-99336038D01*
X108330762Y-99336038D02*
X108178381Y-99336038D01*
X108673619Y-99678895D02*
X108673619Y-98878895D01*
X108673619Y-98878895D02*
X109130762Y-99678895D01*
X109130762Y-99678895D02*
X109130762Y-98878895D01*
X109511714Y-99678895D02*
X109511714Y-98878895D01*
X109511714Y-98878895D02*
X109702190Y-98878895D01*
X109702190Y-98878895D02*
X109816476Y-98916990D01*
X109816476Y-98916990D02*
X109892666Y-98993180D01*
X109892666Y-98993180D02*
X109930761Y-99069371D01*
X109930761Y-99069371D02*
X109968857Y-99221752D01*
X109968857Y-99221752D02*
X109968857Y-99336038D01*
X109968857Y-99336038D02*
X109930761Y-99488419D01*
X109930761Y-99488419D02*
X109892666Y-99564609D01*
X109892666Y-99564609D02*
X109816476Y-99640800D01*
X109816476Y-99640800D02*
X109702190Y-99678895D01*
X109702190Y-99678895D02*
X109511714Y-99678895D01*
X110806952Y-98878895D02*
X111073619Y-99678895D01*
X111073619Y-99678895D02*
X111340285Y-98878895D01*
X111606952Y-99678895D02*
X111606952Y-99145561D01*
X111606952Y-98878895D02*
X111568856Y-98916990D01*
X111568856Y-98916990D02*
X111606952Y-98955085D01*
X111606952Y-98955085D02*
X111645047Y-98916990D01*
X111645047Y-98916990D02*
X111606952Y-98878895D01*
X111606952Y-98878895D02*
X111606952Y-98955085D01*
X111987904Y-99145561D02*
X111987904Y-99678895D01*
X111987904Y-99221752D02*
X112025999Y-99183657D01*
X112025999Y-99183657D02*
X112102189Y-99145561D01*
X112102189Y-99145561D02*
X112216475Y-99145561D01*
X112216475Y-99145561D02*
X112292666Y-99183657D01*
X112292666Y-99183657D02*
X112330761Y-99259847D01*
X112330761Y-99259847D02*
X112330761Y-99678895D01*
D10*
X138747523Y-89116819D02*
X138271333Y-89116819D01*
X138271333Y-89116819D02*
X138223714Y-89593009D01*
X138223714Y-89593009D02*
X138271333Y-89545390D01*
X138271333Y-89545390D02*
X138366571Y-89497771D01*
X138366571Y-89497771D02*
X138604666Y-89497771D01*
X138604666Y-89497771D02*
X138699904Y-89545390D01*
X138699904Y-89545390D02*
X138747523Y-89593009D01*
X138747523Y-89593009D02*
X138795142Y-89688247D01*
X138795142Y-89688247D02*
X138795142Y-89926342D01*
X138795142Y-89926342D02*
X138747523Y-90021580D01*
X138747523Y-90021580D02*
X138699904Y-90069200D01*
X138699904Y-90069200D02*
X138604666Y-90116819D01*
X138604666Y-90116819D02*
X138366571Y-90116819D01*
X138366571Y-90116819D02*
X138271333Y-90069200D01*
X138271333Y-90069200D02*
X138223714Y-90021580D01*
X139080857Y-89116819D02*
X139414190Y-90116819D01*
X139414190Y-90116819D02*
X139747523Y-89116819D01*
X134039819Y-57105357D02*
X133563628Y-57438690D01*
X134039819Y-57676785D02*
X133039819Y-57676785D01*
X133039819Y-57676785D02*
X133039819Y-57295833D01*
X133039819Y-57295833D02*
X133087438Y-57200595D01*
X133087438Y-57200595D02*
X133135057Y-57152976D01*
X133135057Y-57152976D02*
X133230295Y-57105357D01*
X133230295Y-57105357D02*
X133373152Y-57105357D01*
X133373152Y-57105357D02*
X133468390Y-57152976D01*
X133468390Y-57152976D02*
X133516009Y-57200595D01*
X133516009Y-57200595D02*
X133563628Y-57295833D01*
X133563628Y-57295833D02*
X133563628Y-57676785D01*
X133135057Y-56724404D02*
X133087438Y-56676785D01*
X133087438Y-56676785D02*
X133039819Y-56581547D01*
X133039819Y-56581547D02*
X133039819Y-56343452D01*
X133039819Y-56343452D02*
X133087438Y-56248214D01*
X133087438Y-56248214D02*
X133135057Y-56200595D01*
X133135057Y-56200595D02*
X133230295Y-56152976D01*
X133230295Y-56152976D02*
X133325533Y-56152976D01*
X133325533Y-56152976D02*
X133468390Y-56200595D01*
X133468390Y-56200595D02*
X134039819Y-56772023D01*
X134039819Y-56772023D02*
X134039819Y-56152976D01*
X133039819Y-55819642D02*
X133039819Y-55200595D01*
X133039819Y-55200595D02*
X133420771Y-55533928D01*
X133420771Y-55533928D02*
X133420771Y-55391071D01*
X133420771Y-55391071D02*
X133468390Y-55295833D01*
X133468390Y-55295833D02*
X133516009Y-55248214D01*
X133516009Y-55248214D02*
X133611247Y-55200595D01*
X133611247Y-55200595D02*
X133849342Y-55200595D01*
X133849342Y-55200595D02*
X133944580Y-55248214D01*
X133944580Y-55248214D02*
X133992200Y-55295833D01*
X133992200Y-55295833D02*
X134039819Y-55391071D01*
X134039819Y-55391071D02*
X134039819Y-55676785D01*
X134039819Y-55676785D02*
X133992200Y-55772023D01*
X133992200Y-55772023D02*
X133944580Y-55819642D01*
X103474819Y-49533333D02*
X104189104Y-49533333D01*
X104189104Y-49533333D02*
X104331961Y-49580952D01*
X104331961Y-49580952D02*
X104427200Y-49676190D01*
X104427200Y-49676190D02*
X104474819Y-49819047D01*
X104474819Y-49819047D02*
X104474819Y-49914285D01*
X103474819Y-48580952D02*
X103474819Y-49057142D01*
X103474819Y-49057142D02*
X103951009Y-49104761D01*
X103951009Y-49104761D02*
X103903390Y-49057142D01*
X103903390Y-49057142D02*
X103855771Y-48961904D01*
X103855771Y-48961904D02*
X103855771Y-48723809D01*
X103855771Y-48723809D02*
X103903390Y-48628571D01*
X103903390Y-48628571D02*
X103951009Y-48580952D01*
X103951009Y-48580952D02*
X104046247Y-48533333D01*
X104046247Y-48533333D02*
X104284342Y-48533333D01*
X104284342Y-48533333D02*
X104379580Y-48580952D01*
X104379580Y-48580952D02*
X104427200Y-48628571D01*
X104427200Y-48628571D02*
X104474819Y-48723809D01*
X104474819Y-48723809D02*
X104474819Y-48961904D01*
X104474819Y-48961904D02*
X104427200Y-49057142D01*
X104427200Y-49057142D02*
X104379580Y-49104761D01*
X142207142Y-56059579D02*
X142159523Y-56107199D01*
X142159523Y-56107199D02*
X142016666Y-56154818D01*
X142016666Y-56154818D02*
X141921428Y-56154818D01*
X141921428Y-56154818D02*
X141778571Y-56107199D01*
X141778571Y-56107199D02*
X141683333Y-56011960D01*
X141683333Y-56011960D02*
X141635714Y-55916722D01*
X141635714Y-55916722D02*
X141588095Y-55726246D01*
X141588095Y-55726246D02*
X141588095Y-55583389D01*
X141588095Y-55583389D02*
X141635714Y-55392913D01*
X141635714Y-55392913D02*
X141683333Y-55297675D01*
X141683333Y-55297675D02*
X141778571Y-55202437D01*
X141778571Y-55202437D02*
X141921428Y-55154818D01*
X141921428Y-55154818D02*
X142016666Y-55154818D01*
X142016666Y-55154818D02*
X142159523Y-55202437D01*
X142159523Y-55202437D02*
X142207142Y-55250056D01*
X143159523Y-56154818D02*
X142588095Y-56154818D01*
X142873809Y-56154818D02*
X142873809Y-55154818D01*
X142873809Y-55154818D02*
X142778571Y-55297675D01*
X142778571Y-55297675D02*
X142683333Y-55392913D01*
X142683333Y-55392913D02*
X142588095Y-55440532D01*
X143492857Y-55154818D02*
X144111904Y-55154818D01*
X144111904Y-55154818D02*
X143778571Y-55535770D01*
X143778571Y-55535770D02*
X143921428Y-55535770D01*
X143921428Y-55535770D02*
X144016666Y-55583389D01*
X144016666Y-55583389D02*
X144064285Y-55631008D01*
X144064285Y-55631008D02*
X144111904Y-55726246D01*
X144111904Y-55726246D02*
X144111904Y-55964341D01*
X144111904Y-55964341D02*
X144064285Y-56059579D01*
X144064285Y-56059579D02*
X144016666Y-56107199D01*
X144016666Y-56107199D02*
X143921428Y-56154818D01*
X143921428Y-56154818D02*
X143635714Y-56154818D01*
X143635714Y-56154818D02*
X143540476Y-56107199D01*
X143540476Y-56107199D02*
X143492857Y-56059579D01*
X149104819Y-73605357D02*
X148628628Y-73938690D01*
X149104819Y-74176785D02*
X148104819Y-74176785D01*
X148104819Y-74176785D02*
X148104819Y-73795833D01*
X148104819Y-73795833D02*
X148152438Y-73700595D01*
X148152438Y-73700595D02*
X148200057Y-73652976D01*
X148200057Y-73652976D02*
X148295295Y-73605357D01*
X148295295Y-73605357D02*
X148438152Y-73605357D01*
X148438152Y-73605357D02*
X148533390Y-73652976D01*
X148533390Y-73652976D02*
X148581009Y-73700595D01*
X148581009Y-73700595D02*
X148628628Y-73795833D01*
X148628628Y-73795833D02*
X148628628Y-74176785D01*
X148200057Y-73224404D02*
X148152438Y-73176785D01*
X148152438Y-73176785D02*
X148104819Y-73081547D01*
X148104819Y-73081547D02*
X148104819Y-72843452D01*
X148104819Y-72843452D02*
X148152438Y-72748214D01*
X148152438Y-72748214D02*
X148200057Y-72700595D01*
X148200057Y-72700595D02*
X148295295Y-72652976D01*
X148295295Y-72652976D02*
X148390533Y-72652976D01*
X148390533Y-72652976D02*
X148533390Y-72700595D01*
X148533390Y-72700595D02*
X149104819Y-73272023D01*
X149104819Y-73272023D02*
X149104819Y-72652976D01*
X149104819Y-72176785D02*
X149104819Y-71986309D01*
X149104819Y-71986309D02*
X149057200Y-71891071D01*
X149057200Y-71891071D02*
X149009580Y-71843452D01*
X149009580Y-71843452D02*
X148866723Y-71748214D01*
X148866723Y-71748214D02*
X148676247Y-71700595D01*
X148676247Y-71700595D02*
X148295295Y-71700595D01*
X148295295Y-71700595D02*
X148200057Y-71748214D01*
X148200057Y-71748214D02*
X148152438Y-71795833D01*
X148152438Y-71795833D02*
X148104819Y-71891071D01*
X148104819Y-71891071D02*
X148104819Y-72081547D01*
X148104819Y-72081547D02*
X148152438Y-72176785D01*
X148152438Y-72176785D02*
X148200057Y-72224404D01*
X148200057Y-72224404D02*
X148295295Y-72272023D01*
X148295295Y-72272023D02*
X148533390Y-72272023D01*
X148533390Y-72272023D02*
X148628628Y-72224404D01*
X148628628Y-72224404D02*
X148676247Y-72176785D01*
X148676247Y-72176785D02*
X148723866Y-72081547D01*
X148723866Y-72081547D02*
X148723866Y-71891071D01*
X148723866Y-71891071D02*
X148676247Y-71795833D01*
X148676247Y-71795833D02*
X148628628Y-71748214D01*
X148628628Y-71748214D02*
X148533390Y-71700595D01*
X145883333Y-81480819D02*
X145550000Y-81004628D01*
X145311905Y-81480819D02*
X145311905Y-80480819D01*
X145311905Y-80480819D02*
X145692857Y-80480819D01*
X145692857Y-80480819D02*
X145788095Y-80528438D01*
X145788095Y-80528438D02*
X145835714Y-80576057D01*
X145835714Y-80576057D02*
X145883333Y-80671295D01*
X145883333Y-80671295D02*
X145883333Y-80814152D01*
X145883333Y-80814152D02*
X145835714Y-80909390D01*
X145835714Y-80909390D02*
X145788095Y-80957009D01*
X145788095Y-80957009D02*
X145692857Y-81004628D01*
X145692857Y-81004628D02*
X145311905Y-81004628D01*
X146835714Y-81480819D02*
X146264286Y-81480819D01*
X146550000Y-81480819D02*
X146550000Y-80480819D01*
X146550000Y-80480819D02*
X146454762Y-80623676D01*
X146454762Y-80623676D02*
X146359524Y-80718914D01*
X146359524Y-80718914D02*
X146264286Y-80766533D01*
X148105905Y-88846819D02*
X148105905Y-87846819D01*
X148105905Y-87846819D02*
X148344000Y-87846819D01*
X148344000Y-87846819D02*
X148486857Y-87894438D01*
X148486857Y-87894438D02*
X148582095Y-87989676D01*
X148582095Y-87989676D02*
X148629714Y-88084914D01*
X148629714Y-88084914D02*
X148677333Y-88275390D01*
X148677333Y-88275390D02*
X148677333Y-88418247D01*
X148677333Y-88418247D02*
X148629714Y-88608723D01*
X148629714Y-88608723D02*
X148582095Y-88703961D01*
X148582095Y-88703961D02*
X148486857Y-88799200D01*
X148486857Y-88799200D02*
X148344000Y-88846819D01*
X148344000Y-88846819D02*
X148105905Y-88846819D01*
X149010667Y-87846819D02*
X149629714Y-87846819D01*
X149629714Y-87846819D02*
X149296381Y-88227771D01*
X149296381Y-88227771D02*
X149439238Y-88227771D01*
X149439238Y-88227771D02*
X149534476Y-88275390D01*
X149534476Y-88275390D02*
X149582095Y-88323009D01*
X149582095Y-88323009D02*
X149629714Y-88418247D01*
X149629714Y-88418247D02*
X149629714Y-88656342D01*
X149629714Y-88656342D02*
X149582095Y-88751580D01*
X149582095Y-88751580D02*
X149534476Y-88799200D01*
X149534476Y-88799200D02*
X149439238Y-88846819D01*
X149439238Y-88846819D02*
X149153524Y-88846819D01*
X149153524Y-88846819D02*
X149058286Y-88799200D01*
X149058286Y-88799200D02*
X149010667Y-88751580D01*
X143343333Y-81480819D02*
X143010000Y-81004628D01*
X142771905Y-81480819D02*
X142771905Y-80480819D01*
X142771905Y-80480819D02*
X143152857Y-80480819D01*
X143152857Y-80480819D02*
X143248095Y-80528438D01*
X143248095Y-80528438D02*
X143295714Y-80576057D01*
X143295714Y-80576057D02*
X143343333Y-80671295D01*
X143343333Y-80671295D02*
X143343333Y-80814152D01*
X143343333Y-80814152D02*
X143295714Y-80909390D01*
X143295714Y-80909390D02*
X143248095Y-80957009D01*
X143248095Y-80957009D02*
X143152857Y-81004628D01*
X143152857Y-81004628D02*
X142771905Y-81004628D01*
X143724286Y-80576057D02*
X143771905Y-80528438D01*
X143771905Y-80528438D02*
X143867143Y-80480819D01*
X143867143Y-80480819D02*
X144105238Y-80480819D01*
X144105238Y-80480819D02*
X144200476Y-80528438D01*
X144200476Y-80528438D02*
X144248095Y-80576057D01*
X144248095Y-80576057D02*
X144295714Y-80671295D01*
X144295714Y-80671295D02*
X144295714Y-80766533D01*
X144295714Y-80766533D02*
X144248095Y-80909390D01*
X144248095Y-80909390D02*
X143676667Y-81480819D01*
X143676667Y-81480819D02*
X144295714Y-81480819D01*
X130674819Y-57055357D02*
X130198628Y-57388690D01*
X130674819Y-57626785D02*
X129674819Y-57626785D01*
X129674819Y-57626785D02*
X129674819Y-57245833D01*
X129674819Y-57245833D02*
X129722438Y-57150595D01*
X129722438Y-57150595D02*
X129770057Y-57102976D01*
X129770057Y-57102976D02*
X129865295Y-57055357D01*
X129865295Y-57055357D02*
X130008152Y-57055357D01*
X130008152Y-57055357D02*
X130103390Y-57102976D01*
X130103390Y-57102976D02*
X130151009Y-57150595D01*
X130151009Y-57150595D02*
X130198628Y-57245833D01*
X130198628Y-57245833D02*
X130198628Y-57626785D01*
X129770057Y-56674404D02*
X129722438Y-56626785D01*
X129722438Y-56626785D02*
X129674819Y-56531547D01*
X129674819Y-56531547D02*
X129674819Y-56293452D01*
X129674819Y-56293452D02*
X129722438Y-56198214D01*
X129722438Y-56198214D02*
X129770057Y-56150595D01*
X129770057Y-56150595D02*
X129865295Y-56102976D01*
X129865295Y-56102976D02*
X129960533Y-56102976D01*
X129960533Y-56102976D02*
X130103390Y-56150595D01*
X130103390Y-56150595D02*
X130674819Y-56722023D01*
X130674819Y-56722023D02*
X130674819Y-56102976D01*
X129770057Y-55722023D02*
X129722438Y-55674404D01*
X129722438Y-55674404D02*
X129674819Y-55579166D01*
X129674819Y-55579166D02*
X129674819Y-55341071D01*
X129674819Y-55341071D02*
X129722438Y-55245833D01*
X129722438Y-55245833D02*
X129770057Y-55198214D01*
X129770057Y-55198214D02*
X129865295Y-55150595D01*
X129865295Y-55150595D02*
X129960533Y-55150595D01*
X129960533Y-55150595D02*
X130103390Y-55198214D01*
X130103390Y-55198214D02*
X130674819Y-55769642D01*
X130674819Y-55769642D02*
X130674819Y-55150595D01*
X124141580Y-75142857D02*
X124189200Y-75190476D01*
X124189200Y-75190476D02*
X124236819Y-75333333D01*
X124236819Y-75333333D02*
X124236819Y-75428571D01*
X124236819Y-75428571D02*
X124189200Y-75571428D01*
X124189200Y-75571428D02*
X124093961Y-75666666D01*
X124093961Y-75666666D02*
X123998723Y-75714285D01*
X123998723Y-75714285D02*
X123808247Y-75761904D01*
X123808247Y-75761904D02*
X123665390Y-75761904D01*
X123665390Y-75761904D02*
X123474914Y-75714285D01*
X123474914Y-75714285D02*
X123379676Y-75666666D01*
X123379676Y-75666666D02*
X123284438Y-75571428D01*
X123284438Y-75571428D02*
X123236819Y-75428571D01*
X123236819Y-75428571D02*
X123236819Y-75333333D01*
X123236819Y-75333333D02*
X123284438Y-75190476D01*
X123284438Y-75190476D02*
X123332057Y-75142857D01*
X124236819Y-74190476D02*
X124236819Y-74761904D01*
X124236819Y-74476190D02*
X123236819Y-74476190D01*
X123236819Y-74476190D02*
X123379676Y-74571428D01*
X123379676Y-74571428D02*
X123474914Y-74666666D01*
X123474914Y-74666666D02*
X123522533Y-74761904D01*
X123332057Y-73809523D02*
X123284438Y-73761904D01*
X123284438Y-73761904D02*
X123236819Y-73666666D01*
X123236819Y-73666666D02*
X123236819Y-73428571D01*
X123236819Y-73428571D02*
X123284438Y-73333333D01*
X123284438Y-73333333D02*
X123332057Y-73285714D01*
X123332057Y-73285714D02*
X123427295Y-73238095D01*
X123427295Y-73238095D02*
X123522533Y-73238095D01*
X123522533Y-73238095D02*
X123665390Y-73285714D01*
X123665390Y-73285714D02*
X124236819Y-73857142D01*
X124236819Y-73857142D02*
X124236819Y-73238095D01*
X162066666Y-73704819D02*
X162066666Y-74419104D01*
X162066666Y-74419104D02*
X162019047Y-74561961D01*
X162019047Y-74561961D02*
X161923809Y-74657200D01*
X161923809Y-74657200D02*
X161780952Y-74704819D01*
X161780952Y-74704819D02*
X161685714Y-74704819D01*
X162447619Y-73704819D02*
X163114285Y-73704819D01*
X163114285Y-73704819D02*
X162685714Y-74704819D01*
X106005333Y-57604819D02*
X105672000Y-57128628D01*
X105433905Y-57604819D02*
X105433905Y-56604819D01*
X105433905Y-56604819D02*
X105814857Y-56604819D01*
X105814857Y-56604819D02*
X105910095Y-56652438D01*
X105910095Y-56652438D02*
X105957714Y-56700057D01*
X105957714Y-56700057D02*
X106005333Y-56795295D01*
X106005333Y-56795295D02*
X106005333Y-56938152D01*
X106005333Y-56938152D02*
X105957714Y-57033390D01*
X105957714Y-57033390D02*
X105910095Y-57081009D01*
X105910095Y-57081009D02*
X105814857Y-57128628D01*
X105814857Y-57128628D02*
X105433905Y-57128628D01*
X106862476Y-56604819D02*
X106672000Y-56604819D01*
X106672000Y-56604819D02*
X106576762Y-56652438D01*
X106576762Y-56652438D02*
X106529143Y-56700057D01*
X106529143Y-56700057D02*
X106433905Y-56842914D01*
X106433905Y-56842914D02*
X106386286Y-57033390D01*
X106386286Y-57033390D02*
X106386286Y-57414342D01*
X106386286Y-57414342D02*
X106433905Y-57509580D01*
X106433905Y-57509580D02*
X106481524Y-57557200D01*
X106481524Y-57557200D02*
X106576762Y-57604819D01*
X106576762Y-57604819D02*
X106767238Y-57604819D01*
X106767238Y-57604819D02*
X106862476Y-57557200D01*
X106862476Y-57557200D02*
X106910095Y-57509580D01*
X106910095Y-57509580D02*
X106957714Y-57414342D01*
X106957714Y-57414342D02*
X106957714Y-57176247D01*
X106957714Y-57176247D02*
X106910095Y-57081009D01*
X106910095Y-57081009D02*
X106862476Y-57033390D01*
X106862476Y-57033390D02*
X106767238Y-56985771D01*
X106767238Y-56985771D02*
X106576762Y-56985771D01*
X106576762Y-56985771D02*
X106481524Y-57033390D01*
X106481524Y-57033390D02*
X106433905Y-57081009D01*
X106433905Y-57081009D02*
X106386286Y-57176247D01*
X106276666Y-90314819D02*
X106276666Y-91029104D01*
X106276666Y-91029104D02*
X106229047Y-91171961D01*
X106229047Y-91171961D02*
X106133809Y-91267200D01*
X106133809Y-91267200D02*
X105990952Y-91314819D01*
X105990952Y-91314819D02*
X105895714Y-91314819D01*
X107181428Y-90314819D02*
X106990952Y-90314819D01*
X106990952Y-90314819D02*
X106895714Y-90362438D01*
X106895714Y-90362438D02*
X106848095Y-90410057D01*
X106848095Y-90410057D02*
X106752857Y-90552914D01*
X106752857Y-90552914D02*
X106705238Y-90743390D01*
X106705238Y-90743390D02*
X106705238Y-91124342D01*
X106705238Y-91124342D02*
X106752857Y-91219580D01*
X106752857Y-91219580D02*
X106800476Y-91267200D01*
X106800476Y-91267200D02*
X106895714Y-91314819D01*
X106895714Y-91314819D02*
X107086190Y-91314819D01*
X107086190Y-91314819D02*
X107181428Y-91267200D01*
X107181428Y-91267200D02*
X107229047Y-91219580D01*
X107229047Y-91219580D02*
X107276666Y-91124342D01*
X107276666Y-91124342D02*
X107276666Y-90886247D01*
X107276666Y-90886247D02*
X107229047Y-90791009D01*
X107229047Y-90791009D02*
X107181428Y-90743390D01*
X107181428Y-90743390D02*
X107086190Y-90695771D01*
X107086190Y-90695771D02*
X106895714Y-90695771D01*
X106895714Y-90695771D02*
X106800476Y-90743390D01*
X106800476Y-90743390D02*
X106752857Y-90791009D01*
X106752857Y-90791009D02*
X106705238Y-90886247D01*
X152574819Y-56817857D02*
X152098628Y-57151190D01*
X152574819Y-57389285D02*
X151574819Y-57389285D01*
X151574819Y-57389285D02*
X151574819Y-57008333D01*
X151574819Y-57008333D02*
X151622438Y-56913095D01*
X151622438Y-56913095D02*
X151670057Y-56865476D01*
X151670057Y-56865476D02*
X151765295Y-56817857D01*
X151765295Y-56817857D02*
X151908152Y-56817857D01*
X151908152Y-56817857D02*
X152003390Y-56865476D01*
X152003390Y-56865476D02*
X152051009Y-56913095D01*
X152051009Y-56913095D02*
X152098628Y-57008333D01*
X152098628Y-57008333D02*
X152098628Y-57389285D01*
X151574819Y-56484523D02*
X151574819Y-55865476D01*
X151574819Y-55865476D02*
X151955771Y-56198809D01*
X151955771Y-56198809D02*
X151955771Y-56055952D01*
X151955771Y-56055952D02*
X152003390Y-55960714D01*
X152003390Y-55960714D02*
X152051009Y-55913095D01*
X152051009Y-55913095D02*
X152146247Y-55865476D01*
X152146247Y-55865476D02*
X152384342Y-55865476D01*
X152384342Y-55865476D02*
X152479580Y-55913095D01*
X152479580Y-55913095D02*
X152527200Y-55960714D01*
X152527200Y-55960714D02*
X152574819Y-56055952D01*
X152574819Y-56055952D02*
X152574819Y-56341666D01*
X152574819Y-56341666D02*
X152527200Y-56436904D01*
X152527200Y-56436904D02*
X152479580Y-56484523D01*
X151908152Y-55008333D02*
X152574819Y-55008333D01*
X151527200Y-55246428D02*
X152241485Y-55484523D01*
X152241485Y-55484523D02*
X152241485Y-54865476D01*
X155604819Y-73455357D02*
X155128628Y-73788690D01*
X155604819Y-74026785D02*
X154604819Y-74026785D01*
X154604819Y-74026785D02*
X154604819Y-73645833D01*
X154604819Y-73645833D02*
X154652438Y-73550595D01*
X154652438Y-73550595D02*
X154700057Y-73502976D01*
X154700057Y-73502976D02*
X154795295Y-73455357D01*
X154795295Y-73455357D02*
X154938152Y-73455357D01*
X154938152Y-73455357D02*
X155033390Y-73502976D01*
X155033390Y-73502976D02*
X155081009Y-73550595D01*
X155081009Y-73550595D02*
X155128628Y-73645833D01*
X155128628Y-73645833D02*
X155128628Y-74026785D01*
X154604819Y-73122023D02*
X154604819Y-72502976D01*
X154604819Y-72502976D02*
X154985771Y-72836309D01*
X154985771Y-72836309D02*
X154985771Y-72693452D01*
X154985771Y-72693452D02*
X155033390Y-72598214D01*
X155033390Y-72598214D02*
X155081009Y-72550595D01*
X155081009Y-72550595D02*
X155176247Y-72502976D01*
X155176247Y-72502976D02*
X155414342Y-72502976D01*
X155414342Y-72502976D02*
X155509580Y-72550595D01*
X155509580Y-72550595D02*
X155557200Y-72598214D01*
X155557200Y-72598214D02*
X155604819Y-72693452D01*
X155604819Y-72693452D02*
X155604819Y-72979166D01*
X155604819Y-72979166D02*
X155557200Y-73074404D01*
X155557200Y-73074404D02*
X155509580Y-73122023D01*
X155604819Y-71550595D02*
X155604819Y-72122023D01*
X155604819Y-71836309D02*
X154604819Y-71836309D01*
X154604819Y-71836309D02*
X154747676Y-71931547D01*
X154747676Y-71931547D02*
X154842914Y-72026785D01*
X154842914Y-72026785D02*
X154890533Y-72122023D01*
X158934819Y-56992857D02*
X158458628Y-57326190D01*
X158934819Y-57564285D02*
X157934819Y-57564285D01*
X157934819Y-57564285D02*
X157934819Y-57183333D01*
X157934819Y-57183333D02*
X157982438Y-57088095D01*
X157982438Y-57088095D02*
X158030057Y-57040476D01*
X158030057Y-57040476D02*
X158125295Y-56992857D01*
X158125295Y-56992857D02*
X158268152Y-56992857D01*
X158268152Y-56992857D02*
X158363390Y-57040476D01*
X158363390Y-57040476D02*
X158411009Y-57088095D01*
X158411009Y-57088095D02*
X158458628Y-57183333D01*
X158458628Y-57183333D02*
X158458628Y-57564285D01*
X157934819Y-56659523D02*
X157934819Y-56040476D01*
X157934819Y-56040476D02*
X158315771Y-56373809D01*
X158315771Y-56373809D02*
X158315771Y-56230952D01*
X158315771Y-56230952D02*
X158363390Y-56135714D01*
X158363390Y-56135714D02*
X158411009Y-56088095D01*
X158411009Y-56088095D02*
X158506247Y-56040476D01*
X158506247Y-56040476D02*
X158744342Y-56040476D01*
X158744342Y-56040476D02*
X158839580Y-56088095D01*
X158839580Y-56088095D02*
X158887200Y-56135714D01*
X158887200Y-56135714D02*
X158934819Y-56230952D01*
X158934819Y-56230952D02*
X158934819Y-56516666D01*
X158934819Y-56516666D02*
X158887200Y-56611904D01*
X158887200Y-56611904D02*
X158839580Y-56659523D01*
X157934819Y-55183333D02*
X157934819Y-55373809D01*
X157934819Y-55373809D02*
X157982438Y-55469047D01*
X157982438Y-55469047D02*
X158030057Y-55516666D01*
X158030057Y-55516666D02*
X158172914Y-55611904D01*
X158172914Y-55611904D02*
X158363390Y-55659523D01*
X158363390Y-55659523D02*
X158744342Y-55659523D01*
X158744342Y-55659523D02*
X158839580Y-55611904D01*
X158839580Y-55611904D02*
X158887200Y-55564285D01*
X158887200Y-55564285D02*
X158934819Y-55469047D01*
X158934819Y-55469047D02*
X158934819Y-55278571D01*
X158934819Y-55278571D02*
X158887200Y-55183333D01*
X158887200Y-55183333D02*
X158839580Y-55135714D01*
X158839580Y-55135714D02*
X158744342Y-55088095D01*
X158744342Y-55088095D02*
X158506247Y-55088095D01*
X158506247Y-55088095D02*
X158411009Y-55135714D01*
X158411009Y-55135714D02*
X158363390Y-55183333D01*
X158363390Y-55183333D02*
X158315771Y-55278571D01*
X158315771Y-55278571D02*
X158315771Y-55469047D01*
X158315771Y-55469047D02*
X158363390Y-55564285D01*
X158363390Y-55564285D02*
X158411009Y-55611904D01*
X158411009Y-55611904D02*
X158506247Y-55659523D01*
X110151905Y-90254819D02*
X110151905Y-89254819D01*
X110151905Y-89254819D02*
X110390000Y-89254819D01*
X110390000Y-89254819D02*
X110532857Y-89302438D01*
X110532857Y-89302438D02*
X110628095Y-89397676D01*
X110628095Y-89397676D02*
X110675714Y-89492914D01*
X110675714Y-89492914D02*
X110723333Y-89683390D01*
X110723333Y-89683390D02*
X110723333Y-89826247D01*
X110723333Y-89826247D02*
X110675714Y-90016723D01*
X110675714Y-90016723D02*
X110628095Y-90111961D01*
X110628095Y-90111961D02*
X110532857Y-90207200D01*
X110532857Y-90207200D02*
X110390000Y-90254819D01*
X110390000Y-90254819D02*
X110151905Y-90254819D01*
X111675714Y-90254819D02*
X111104286Y-90254819D01*
X111390000Y-90254819D02*
X111390000Y-89254819D01*
X111390000Y-89254819D02*
X111294762Y-89397676D01*
X111294762Y-89397676D02*
X111199524Y-89492914D01*
X111199524Y-89492914D02*
X111104286Y-89540533D01*
X113592319Y-70936904D02*
X114401842Y-70936904D01*
X114401842Y-70936904D02*
X114497080Y-70889285D01*
X114497080Y-70889285D02*
X114544700Y-70841666D01*
X114544700Y-70841666D02*
X114592319Y-70746428D01*
X114592319Y-70746428D02*
X114592319Y-70555952D01*
X114592319Y-70555952D02*
X114544700Y-70460714D01*
X114544700Y-70460714D02*
X114497080Y-70413095D01*
X114497080Y-70413095D02*
X114401842Y-70365476D01*
X114401842Y-70365476D02*
X113592319Y-70365476D01*
X113592319Y-69984523D02*
X113592319Y-69365476D01*
X113592319Y-69365476D02*
X113973271Y-69698809D01*
X113973271Y-69698809D02*
X113973271Y-69555952D01*
X113973271Y-69555952D02*
X114020890Y-69460714D01*
X114020890Y-69460714D02*
X114068509Y-69413095D01*
X114068509Y-69413095D02*
X114163747Y-69365476D01*
X114163747Y-69365476D02*
X114401842Y-69365476D01*
X114401842Y-69365476D02*
X114497080Y-69413095D01*
X114497080Y-69413095D02*
X114544700Y-69460714D01*
X114544700Y-69460714D02*
X114592319Y-69555952D01*
X114592319Y-69555952D02*
X114592319Y-69841666D01*
X114592319Y-69841666D02*
X114544700Y-69936904D01*
X114544700Y-69936904D02*
X114497080Y-69984523D01*
X130574819Y-72805357D02*
X130098628Y-73138690D01*
X130574819Y-73376785D02*
X129574819Y-73376785D01*
X129574819Y-73376785D02*
X129574819Y-72995833D01*
X129574819Y-72995833D02*
X129622438Y-72900595D01*
X129622438Y-72900595D02*
X129670057Y-72852976D01*
X129670057Y-72852976D02*
X129765295Y-72805357D01*
X129765295Y-72805357D02*
X129908152Y-72805357D01*
X129908152Y-72805357D02*
X130003390Y-72852976D01*
X130003390Y-72852976D02*
X130051009Y-72900595D01*
X130051009Y-72900595D02*
X130098628Y-72995833D01*
X130098628Y-72995833D02*
X130098628Y-73376785D01*
X129670057Y-72424404D02*
X129622438Y-72376785D01*
X129622438Y-72376785D02*
X129574819Y-72281547D01*
X129574819Y-72281547D02*
X129574819Y-72043452D01*
X129574819Y-72043452D02*
X129622438Y-71948214D01*
X129622438Y-71948214D02*
X129670057Y-71900595D01*
X129670057Y-71900595D02*
X129765295Y-71852976D01*
X129765295Y-71852976D02*
X129860533Y-71852976D01*
X129860533Y-71852976D02*
X130003390Y-71900595D01*
X130003390Y-71900595D02*
X130574819Y-72472023D01*
X130574819Y-72472023D02*
X130574819Y-71852976D01*
X129574819Y-70995833D02*
X129574819Y-71186309D01*
X129574819Y-71186309D02*
X129622438Y-71281547D01*
X129622438Y-71281547D02*
X129670057Y-71329166D01*
X129670057Y-71329166D02*
X129812914Y-71424404D01*
X129812914Y-71424404D02*
X130003390Y-71472023D01*
X130003390Y-71472023D02*
X130384342Y-71472023D01*
X130384342Y-71472023D02*
X130479580Y-71424404D01*
X130479580Y-71424404D02*
X130527200Y-71376785D01*
X130527200Y-71376785D02*
X130574819Y-71281547D01*
X130574819Y-71281547D02*
X130574819Y-71091071D01*
X130574819Y-71091071D02*
X130527200Y-70995833D01*
X130527200Y-70995833D02*
X130479580Y-70948214D01*
X130479580Y-70948214D02*
X130384342Y-70900595D01*
X130384342Y-70900595D02*
X130146247Y-70900595D01*
X130146247Y-70900595D02*
X130051009Y-70948214D01*
X130051009Y-70948214D02*
X130003390Y-70995833D01*
X130003390Y-70995833D02*
X129955771Y-71091071D01*
X129955771Y-71091071D02*
X129955771Y-71281547D01*
X129955771Y-71281547D02*
X130003390Y-71376785D01*
X130003390Y-71376785D02*
X130051009Y-71424404D01*
X130051009Y-71424404D02*
X130146247Y-71472023D01*
X137054819Y-56805357D02*
X136578628Y-57138690D01*
X137054819Y-57376785D02*
X136054819Y-57376785D01*
X136054819Y-57376785D02*
X136054819Y-56995833D01*
X136054819Y-56995833D02*
X136102438Y-56900595D01*
X136102438Y-56900595D02*
X136150057Y-56852976D01*
X136150057Y-56852976D02*
X136245295Y-56805357D01*
X136245295Y-56805357D02*
X136388152Y-56805357D01*
X136388152Y-56805357D02*
X136483390Y-56852976D01*
X136483390Y-56852976D02*
X136531009Y-56900595D01*
X136531009Y-56900595D02*
X136578628Y-56995833D01*
X136578628Y-56995833D02*
X136578628Y-57376785D01*
X136150057Y-56424404D02*
X136102438Y-56376785D01*
X136102438Y-56376785D02*
X136054819Y-56281547D01*
X136054819Y-56281547D02*
X136054819Y-56043452D01*
X136054819Y-56043452D02*
X136102438Y-55948214D01*
X136102438Y-55948214D02*
X136150057Y-55900595D01*
X136150057Y-55900595D02*
X136245295Y-55852976D01*
X136245295Y-55852976D02*
X136340533Y-55852976D01*
X136340533Y-55852976D02*
X136483390Y-55900595D01*
X136483390Y-55900595D02*
X137054819Y-56472023D01*
X137054819Y-56472023D02*
X137054819Y-55852976D01*
X136388152Y-54995833D02*
X137054819Y-54995833D01*
X136007200Y-55233928D02*
X136721485Y-55472023D01*
X136721485Y-55472023D02*
X136721485Y-54852976D01*
X155749819Y-56992857D02*
X155273628Y-57326190D01*
X155749819Y-57564285D02*
X154749819Y-57564285D01*
X154749819Y-57564285D02*
X154749819Y-57183333D01*
X154749819Y-57183333D02*
X154797438Y-57088095D01*
X154797438Y-57088095D02*
X154845057Y-57040476D01*
X154845057Y-57040476D02*
X154940295Y-56992857D01*
X154940295Y-56992857D02*
X155083152Y-56992857D01*
X155083152Y-56992857D02*
X155178390Y-57040476D01*
X155178390Y-57040476D02*
X155226009Y-57088095D01*
X155226009Y-57088095D02*
X155273628Y-57183333D01*
X155273628Y-57183333D02*
X155273628Y-57564285D01*
X154749819Y-56659523D02*
X154749819Y-56040476D01*
X154749819Y-56040476D02*
X155130771Y-56373809D01*
X155130771Y-56373809D02*
X155130771Y-56230952D01*
X155130771Y-56230952D02*
X155178390Y-56135714D01*
X155178390Y-56135714D02*
X155226009Y-56088095D01*
X155226009Y-56088095D02*
X155321247Y-56040476D01*
X155321247Y-56040476D02*
X155559342Y-56040476D01*
X155559342Y-56040476D02*
X155654580Y-56088095D01*
X155654580Y-56088095D02*
X155702200Y-56135714D01*
X155702200Y-56135714D02*
X155749819Y-56230952D01*
X155749819Y-56230952D02*
X155749819Y-56516666D01*
X155749819Y-56516666D02*
X155702200Y-56611904D01*
X155702200Y-56611904D02*
X155654580Y-56659523D01*
X154749819Y-55135714D02*
X154749819Y-55611904D01*
X154749819Y-55611904D02*
X155226009Y-55659523D01*
X155226009Y-55659523D02*
X155178390Y-55611904D01*
X155178390Y-55611904D02*
X155130771Y-55516666D01*
X155130771Y-55516666D02*
X155130771Y-55278571D01*
X155130771Y-55278571D02*
X155178390Y-55183333D01*
X155178390Y-55183333D02*
X155226009Y-55135714D01*
X155226009Y-55135714D02*
X155321247Y-55088095D01*
X155321247Y-55088095D02*
X155559342Y-55088095D01*
X155559342Y-55088095D02*
X155654580Y-55135714D01*
X155654580Y-55135714D02*
X155702200Y-55183333D01*
X155702200Y-55183333D02*
X155749819Y-55278571D01*
X155749819Y-55278571D02*
X155749819Y-55516666D01*
X155749819Y-55516666D02*
X155702200Y-55611904D01*
X155702200Y-55611904D02*
X155654580Y-55659523D01*
X137254819Y-72905357D02*
X136778628Y-73238690D01*
X137254819Y-73476785D02*
X136254819Y-73476785D01*
X136254819Y-73476785D02*
X136254819Y-73095833D01*
X136254819Y-73095833D02*
X136302438Y-73000595D01*
X136302438Y-73000595D02*
X136350057Y-72952976D01*
X136350057Y-72952976D02*
X136445295Y-72905357D01*
X136445295Y-72905357D02*
X136588152Y-72905357D01*
X136588152Y-72905357D02*
X136683390Y-72952976D01*
X136683390Y-72952976D02*
X136731009Y-73000595D01*
X136731009Y-73000595D02*
X136778628Y-73095833D01*
X136778628Y-73095833D02*
X136778628Y-73476785D01*
X136350057Y-72524404D02*
X136302438Y-72476785D01*
X136302438Y-72476785D02*
X136254819Y-72381547D01*
X136254819Y-72381547D02*
X136254819Y-72143452D01*
X136254819Y-72143452D02*
X136302438Y-72048214D01*
X136302438Y-72048214D02*
X136350057Y-72000595D01*
X136350057Y-72000595D02*
X136445295Y-71952976D01*
X136445295Y-71952976D02*
X136540533Y-71952976D01*
X136540533Y-71952976D02*
X136683390Y-72000595D01*
X136683390Y-72000595D02*
X137254819Y-72572023D01*
X137254819Y-72572023D02*
X137254819Y-71952976D01*
X136683390Y-71381547D02*
X136635771Y-71476785D01*
X136635771Y-71476785D02*
X136588152Y-71524404D01*
X136588152Y-71524404D02*
X136492914Y-71572023D01*
X136492914Y-71572023D02*
X136445295Y-71572023D01*
X136445295Y-71572023D02*
X136350057Y-71524404D01*
X136350057Y-71524404D02*
X136302438Y-71476785D01*
X136302438Y-71476785D02*
X136254819Y-71381547D01*
X136254819Y-71381547D02*
X136254819Y-71191071D01*
X136254819Y-71191071D02*
X136302438Y-71095833D01*
X136302438Y-71095833D02*
X136350057Y-71048214D01*
X136350057Y-71048214D02*
X136445295Y-71000595D01*
X136445295Y-71000595D02*
X136492914Y-71000595D01*
X136492914Y-71000595D02*
X136588152Y-71048214D01*
X136588152Y-71048214D02*
X136635771Y-71095833D01*
X136635771Y-71095833D02*
X136683390Y-71191071D01*
X136683390Y-71191071D02*
X136683390Y-71381547D01*
X136683390Y-71381547D02*
X136731009Y-71476785D01*
X136731009Y-71476785D02*
X136778628Y-71524404D01*
X136778628Y-71524404D02*
X136873866Y-71572023D01*
X136873866Y-71572023D02*
X137064342Y-71572023D01*
X137064342Y-71572023D02*
X137159580Y-71524404D01*
X137159580Y-71524404D02*
X137207200Y-71476785D01*
X137207200Y-71476785D02*
X137254819Y-71381547D01*
X137254819Y-71381547D02*
X137254819Y-71191071D01*
X137254819Y-71191071D02*
X137207200Y-71095833D01*
X137207200Y-71095833D02*
X137159580Y-71048214D01*
X137159580Y-71048214D02*
X137064342Y-71000595D01*
X137064342Y-71000595D02*
X136873866Y-71000595D01*
X136873866Y-71000595D02*
X136778628Y-71048214D01*
X136778628Y-71048214D02*
X136731009Y-71095833D01*
X136731009Y-71095833D02*
X136683390Y-71191071D01*
X108327580Y-75342857D02*
X108375200Y-75390476D01*
X108375200Y-75390476D02*
X108422819Y-75533333D01*
X108422819Y-75533333D02*
X108422819Y-75628571D01*
X108422819Y-75628571D02*
X108375200Y-75771428D01*
X108375200Y-75771428D02*
X108279961Y-75866666D01*
X108279961Y-75866666D02*
X108184723Y-75914285D01*
X108184723Y-75914285D02*
X107994247Y-75961904D01*
X107994247Y-75961904D02*
X107851390Y-75961904D01*
X107851390Y-75961904D02*
X107660914Y-75914285D01*
X107660914Y-75914285D02*
X107565676Y-75866666D01*
X107565676Y-75866666D02*
X107470438Y-75771428D01*
X107470438Y-75771428D02*
X107422819Y-75628571D01*
X107422819Y-75628571D02*
X107422819Y-75533333D01*
X107422819Y-75533333D02*
X107470438Y-75390476D01*
X107470438Y-75390476D02*
X107518057Y-75342857D01*
X108422819Y-74390476D02*
X108422819Y-74961904D01*
X108422819Y-74676190D02*
X107422819Y-74676190D01*
X107422819Y-74676190D02*
X107565676Y-74771428D01*
X107565676Y-74771428D02*
X107660914Y-74866666D01*
X107660914Y-74866666D02*
X107708533Y-74961904D01*
X107422819Y-73771428D02*
X107422819Y-73676190D01*
X107422819Y-73676190D02*
X107470438Y-73580952D01*
X107470438Y-73580952D02*
X107518057Y-73533333D01*
X107518057Y-73533333D02*
X107613295Y-73485714D01*
X107613295Y-73485714D02*
X107803771Y-73438095D01*
X107803771Y-73438095D02*
X108041866Y-73438095D01*
X108041866Y-73438095D02*
X108232342Y-73485714D01*
X108232342Y-73485714D02*
X108327580Y-73533333D01*
X108327580Y-73533333D02*
X108375200Y-73580952D01*
X108375200Y-73580952D02*
X108422819Y-73676190D01*
X108422819Y-73676190D02*
X108422819Y-73771428D01*
X108422819Y-73771428D02*
X108375200Y-73866666D01*
X108375200Y-73866666D02*
X108327580Y-73914285D01*
X108327580Y-73914285D02*
X108232342Y-73961904D01*
X108232342Y-73961904D02*
X108041866Y-74009523D01*
X108041866Y-74009523D02*
X107803771Y-74009523D01*
X107803771Y-74009523D02*
X107613295Y-73961904D01*
X107613295Y-73961904D02*
X107518057Y-73914285D01*
X107518057Y-73914285D02*
X107470438Y-73866666D01*
X107470438Y-73866666D02*
X107422819Y-73771428D01*
X138199905Y-88592819D02*
X138199905Y-87592819D01*
X138199905Y-87592819D02*
X138438000Y-87592819D01*
X138438000Y-87592819D02*
X138580857Y-87640438D01*
X138580857Y-87640438D02*
X138676095Y-87735676D01*
X138676095Y-87735676D02*
X138723714Y-87830914D01*
X138723714Y-87830914D02*
X138771333Y-88021390D01*
X138771333Y-88021390D02*
X138771333Y-88164247D01*
X138771333Y-88164247D02*
X138723714Y-88354723D01*
X138723714Y-88354723D02*
X138676095Y-88449961D01*
X138676095Y-88449961D02*
X138580857Y-88545200D01*
X138580857Y-88545200D02*
X138438000Y-88592819D01*
X138438000Y-88592819D02*
X138199905Y-88592819D01*
X139152286Y-87688057D02*
X139199905Y-87640438D01*
X139199905Y-87640438D02*
X139295143Y-87592819D01*
X139295143Y-87592819D02*
X139533238Y-87592819D01*
X139533238Y-87592819D02*
X139628476Y-87640438D01*
X139628476Y-87640438D02*
X139676095Y-87688057D01*
X139676095Y-87688057D02*
X139723714Y-87783295D01*
X139723714Y-87783295D02*
X139723714Y-87878533D01*
X139723714Y-87878533D02*
X139676095Y-88021390D01*
X139676095Y-88021390D02*
X139104667Y-88592819D01*
X139104667Y-88592819D02*
X139723714Y-88592819D01*
X124141580Y-69642857D02*
X124189200Y-69690476D01*
X124189200Y-69690476D02*
X124236819Y-69833333D01*
X124236819Y-69833333D02*
X124236819Y-69928571D01*
X124236819Y-69928571D02*
X124189200Y-70071428D01*
X124189200Y-70071428D02*
X124093961Y-70166666D01*
X124093961Y-70166666D02*
X123998723Y-70214285D01*
X123998723Y-70214285D02*
X123808247Y-70261904D01*
X123808247Y-70261904D02*
X123665390Y-70261904D01*
X123665390Y-70261904D02*
X123474914Y-70214285D01*
X123474914Y-70214285D02*
X123379676Y-70166666D01*
X123379676Y-70166666D02*
X123284438Y-70071428D01*
X123284438Y-70071428D02*
X123236819Y-69928571D01*
X123236819Y-69928571D02*
X123236819Y-69833333D01*
X123236819Y-69833333D02*
X123284438Y-69690476D01*
X123284438Y-69690476D02*
X123332057Y-69642857D01*
X124236819Y-68690476D02*
X124236819Y-69261904D01*
X124236819Y-68976190D02*
X123236819Y-68976190D01*
X123236819Y-68976190D02*
X123379676Y-69071428D01*
X123379676Y-69071428D02*
X123474914Y-69166666D01*
X123474914Y-69166666D02*
X123522533Y-69261904D01*
X124236819Y-67738095D02*
X124236819Y-68309523D01*
X124236819Y-68023809D02*
X123236819Y-68023809D01*
X123236819Y-68023809D02*
X123379676Y-68119047D01*
X123379676Y-68119047D02*
X123474914Y-68214285D01*
X123474914Y-68214285D02*
X123522533Y-68309523D01*
X159074819Y-72905357D02*
X158598628Y-73238690D01*
X159074819Y-73476785D02*
X158074819Y-73476785D01*
X158074819Y-73476785D02*
X158074819Y-73095833D01*
X158074819Y-73095833D02*
X158122438Y-73000595D01*
X158122438Y-73000595D02*
X158170057Y-72952976D01*
X158170057Y-72952976D02*
X158265295Y-72905357D01*
X158265295Y-72905357D02*
X158408152Y-72905357D01*
X158408152Y-72905357D02*
X158503390Y-72952976D01*
X158503390Y-72952976D02*
X158551009Y-73000595D01*
X158551009Y-73000595D02*
X158598628Y-73095833D01*
X158598628Y-73095833D02*
X158598628Y-73476785D01*
X158074819Y-72572023D02*
X158074819Y-71952976D01*
X158074819Y-71952976D02*
X158455771Y-72286309D01*
X158455771Y-72286309D02*
X158455771Y-72143452D01*
X158455771Y-72143452D02*
X158503390Y-72048214D01*
X158503390Y-72048214D02*
X158551009Y-72000595D01*
X158551009Y-72000595D02*
X158646247Y-71952976D01*
X158646247Y-71952976D02*
X158884342Y-71952976D01*
X158884342Y-71952976D02*
X158979580Y-72000595D01*
X158979580Y-72000595D02*
X159027200Y-72048214D01*
X159027200Y-72048214D02*
X159074819Y-72143452D01*
X159074819Y-72143452D02*
X159074819Y-72429166D01*
X159074819Y-72429166D02*
X159027200Y-72524404D01*
X159027200Y-72524404D02*
X158979580Y-72572023D01*
X158170057Y-71572023D02*
X158122438Y-71524404D01*
X158122438Y-71524404D02*
X158074819Y-71429166D01*
X158074819Y-71429166D02*
X158074819Y-71191071D01*
X158074819Y-71191071D02*
X158122438Y-71095833D01*
X158122438Y-71095833D02*
X158170057Y-71048214D01*
X158170057Y-71048214D02*
X158265295Y-71000595D01*
X158265295Y-71000595D02*
X158360533Y-71000595D01*
X158360533Y-71000595D02*
X158503390Y-71048214D01*
X158503390Y-71048214D02*
X159074819Y-71619642D01*
X159074819Y-71619642D02*
X159074819Y-71000595D01*
X152404819Y-73230357D02*
X151928628Y-73563690D01*
X152404819Y-73801785D02*
X151404819Y-73801785D01*
X151404819Y-73801785D02*
X151404819Y-73420833D01*
X151404819Y-73420833D02*
X151452438Y-73325595D01*
X151452438Y-73325595D02*
X151500057Y-73277976D01*
X151500057Y-73277976D02*
X151595295Y-73230357D01*
X151595295Y-73230357D02*
X151738152Y-73230357D01*
X151738152Y-73230357D02*
X151833390Y-73277976D01*
X151833390Y-73277976D02*
X151881009Y-73325595D01*
X151881009Y-73325595D02*
X151928628Y-73420833D01*
X151928628Y-73420833D02*
X151928628Y-73801785D01*
X151404819Y-72897023D02*
X151404819Y-72277976D01*
X151404819Y-72277976D02*
X151785771Y-72611309D01*
X151785771Y-72611309D02*
X151785771Y-72468452D01*
X151785771Y-72468452D02*
X151833390Y-72373214D01*
X151833390Y-72373214D02*
X151881009Y-72325595D01*
X151881009Y-72325595D02*
X151976247Y-72277976D01*
X151976247Y-72277976D02*
X152214342Y-72277976D01*
X152214342Y-72277976D02*
X152309580Y-72325595D01*
X152309580Y-72325595D02*
X152357200Y-72373214D01*
X152357200Y-72373214D02*
X152404819Y-72468452D01*
X152404819Y-72468452D02*
X152404819Y-72754166D01*
X152404819Y-72754166D02*
X152357200Y-72849404D01*
X152357200Y-72849404D02*
X152309580Y-72897023D01*
X151404819Y-71658928D02*
X151404819Y-71563690D01*
X151404819Y-71563690D02*
X151452438Y-71468452D01*
X151452438Y-71468452D02*
X151500057Y-71420833D01*
X151500057Y-71420833D02*
X151595295Y-71373214D01*
X151595295Y-71373214D02*
X151785771Y-71325595D01*
X151785771Y-71325595D02*
X152023866Y-71325595D01*
X152023866Y-71325595D02*
X152214342Y-71373214D01*
X152214342Y-71373214D02*
X152309580Y-71420833D01*
X152309580Y-71420833D02*
X152357200Y-71468452D01*
X152357200Y-71468452D02*
X152404819Y-71563690D01*
X152404819Y-71563690D02*
X152404819Y-71658928D01*
X152404819Y-71658928D02*
X152357200Y-71754166D01*
X152357200Y-71754166D02*
X152309580Y-71801785D01*
X152309580Y-71801785D02*
X152214342Y-71849404D01*
X152214342Y-71849404D02*
X152023866Y-71897023D01*
X152023866Y-71897023D02*
X151785771Y-71897023D01*
X151785771Y-71897023D02*
X151595295Y-71849404D01*
X151595295Y-71849404D02*
X151500057Y-71801785D01*
X151500057Y-71801785D02*
X151452438Y-71754166D01*
X151452438Y-71754166D02*
X151404819Y-71658928D01*
X140549333Y-94593580D02*
X140501714Y-94641200D01*
X140501714Y-94641200D02*
X140358857Y-94688819D01*
X140358857Y-94688819D02*
X140263619Y-94688819D01*
X140263619Y-94688819D02*
X140120762Y-94641200D01*
X140120762Y-94641200D02*
X140025524Y-94545961D01*
X140025524Y-94545961D02*
X139977905Y-94450723D01*
X139977905Y-94450723D02*
X139930286Y-94260247D01*
X139930286Y-94260247D02*
X139930286Y-94117390D01*
X139930286Y-94117390D02*
X139977905Y-93926914D01*
X139977905Y-93926914D02*
X140025524Y-93831676D01*
X140025524Y-93831676D02*
X140120762Y-93736438D01*
X140120762Y-93736438D02*
X140263619Y-93688819D01*
X140263619Y-93688819D02*
X140358857Y-93688819D01*
X140358857Y-93688819D02*
X140501714Y-93736438D01*
X140501714Y-93736438D02*
X140549333Y-93784057D01*
X141406476Y-94022152D02*
X141406476Y-94688819D01*
X141168381Y-93641200D02*
X140930286Y-94355485D01*
X140930286Y-94355485D02*
X141549333Y-94355485D01*
X120683333Y-89009580D02*
X120635714Y-89057200D01*
X120635714Y-89057200D02*
X120492857Y-89104819D01*
X120492857Y-89104819D02*
X120397619Y-89104819D01*
X120397619Y-89104819D02*
X120254762Y-89057200D01*
X120254762Y-89057200D02*
X120159524Y-88961961D01*
X120159524Y-88961961D02*
X120111905Y-88866723D01*
X120111905Y-88866723D02*
X120064286Y-88676247D01*
X120064286Y-88676247D02*
X120064286Y-88533390D01*
X120064286Y-88533390D02*
X120111905Y-88342914D01*
X120111905Y-88342914D02*
X120159524Y-88247676D01*
X120159524Y-88247676D02*
X120254762Y-88152438D01*
X120254762Y-88152438D02*
X120397619Y-88104819D01*
X120397619Y-88104819D02*
X120492857Y-88104819D01*
X120492857Y-88104819D02*
X120635714Y-88152438D01*
X120635714Y-88152438D02*
X120683333Y-88200057D01*
X121635714Y-89104819D02*
X121064286Y-89104819D01*
X121350000Y-89104819D02*
X121350000Y-88104819D01*
X121350000Y-88104819D02*
X121254762Y-88247676D01*
X121254762Y-88247676D02*
X121159524Y-88342914D01*
X121159524Y-88342914D02*
X121064286Y-88390533D01*
X161866666Y-92304819D02*
X161866666Y-93019104D01*
X161866666Y-93019104D02*
X161819047Y-93161961D01*
X161819047Y-93161961D02*
X161723809Y-93257200D01*
X161723809Y-93257200D02*
X161580952Y-93304819D01*
X161580952Y-93304819D02*
X161485714Y-93304819D01*
X162485714Y-92733390D02*
X162390476Y-92685771D01*
X162390476Y-92685771D02*
X162342857Y-92638152D01*
X162342857Y-92638152D02*
X162295238Y-92542914D01*
X162295238Y-92542914D02*
X162295238Y-92495295D01*
X162295238Y-92495295D02*
X162342857Y-92400057D01*
X162342857Y-92400057D02*
X162390476Y-92352438D01*
X162390476Y-92352438D02*
X162485714Y-92304819D01*
X162485714Y-92304819D02*
X162676190Y-92304819D01*
X162676190Y-92304819D02*
X162771428Y-92352438D01*
X162771428Y-92352438D02*
X162819047Y-92400057D01*
X162819047Y-92400057D02*
X162866666Y-92495295D01*
X162866666Y-92495295D02*
X162866666Y-92542914D01*
X162866666Y-92542914D02*
X162819047Y-92638152D01*
X162819047Y-92638152D02*
X162771428Y-92685771D01*
X162771428Y-92685771D02*
X162676190Y-92733390D01*
X162676190Y-92733390D02*
X162485714Y-92733390D01*
X162485714Y-92733390D02*
X162390476Y-92781009D01*
X162390476Y-92781009D02*
X162342857Y-92828628D01*
X162342857Y-92828628D02*
X162295238Y-92923866D01*
X162295238Y-92923866D02*
X162295238Y-93114342D01*
X162295238Y-93114342D02*
X162342857Y-93209580D01*
X162342857Y-93209580D02*
X162390476Y-93257200D01*
X162390476Y-93257200D02*
X162485714Y-93304819D01*
X162485714Y-93304819D02*
X162676190Y-93304819D01*
X162676190Y-93304819D02*
X162771428Y-93257200D01*
X162771428Y-93257200D02*
X162819047Y-93209580D01*
X162819047Y-93209580D02*
X162866666Y-93114342D01*
X162866666Y-93114342D02*
X162866666Y-92923866D01*
X162866666Y-92923866D02*
X162819047Y-92828628D01*
X162819047Y-92828628D02*
X162771428Y-92781009D01*
X162771428Y-92781009D02*
X162676190Y-92733390D01*
X148954819Y-56692857D02*
X148478628Y-57026190D01*
X148954819Y-57264285D02*
X147954819Y-57264285D01*
X147954819Y-57264285D02*
X147954819Y-56883333D01*
X147954819Y-56883333D02*
X148002438Y-56788095D01*
X148002438Y-56788095D02*
X148050057Y-56740476D01*
X148050057Y-56740476D02*
X148145295Y-56692857D01*
X148145295Y-56692857D02*
X148288152Y-56692857D01*
X148288152Y-56692857D02*
X148383390Y-56740476D01*
X148383390Y-56740476D02*
X148431009Y-56788095D01*
X148431009Y-56788095D02*
X148478628Y-56883333D01*
X148478628Y-56883333D02*
X148478628Y-57264285D01*
X147954819Y-56359523D02*
X147954819Y-55740476D01*
X147954819Y-55740476D02*
X148335771Y-56073809D01*
X148335771Y-56073809D02*
X148335771Y-55930952D01*
X148335771Y-55930952D02*
X148383390Y-55835714D01*
X148383390Y-55835714D02*
X148431009Y-55788095D01*
X148431009Y-55788095D02*
X148526247Y-55740476D01*
X148526247Y-55740476D02*
X148764342Y-55740476D01*
X148764342Y-55740476D02*
X148859580Y-55788095D01*
X148859580Y-55788095D02*
X148907200Y-55835714D01*
X148907200Y-55835714D02*
X148954819Y-55930952D01*
X148954819Y-55930952D02*
X148954819Y-56216666D01*
X148954819Y-56216666D02*
X148907200Y-56311904D01*
X148907200Y-56311904D02*
X148859580Y-56359523D01*
X147954819Y-55407142D02*
X147954819Y-54788095D01*
X147954819Y-54788095D02*
X148335771Y-55121428D01*
X148335771Y-55121428D02*
X148335771Y-54978571D01*
X148335771Y-54978571D02*
X148383390Y-54883333D01*
X148383390Y-54883333D02*
X148431009Y-54835714D01*
X148431009Y-54835714D02*
X148526247Y-54788095D01*
X148526247Y-54788095D02*
X148764342Y-54788095D01*
X148764342Y-54788095D02*
X148859580Y-54835714D01*
X148859580Y-54835714D02*
X148907200Y-54883333D01*
X148907200Y-54883333D02*
X148954819Y-54978571D01*
X148954819Y-54978571D02*
X148954819Y-55264285D01*
X148954819Y-55264285D02*
X148907200Y-55359523D01*
X148907200Y-55359523D02*
X148859580Y-55407142D01*
X134154819Y-73005357D02*
X133678628Y-73338690D01*
X134154819Y-73576785D02*
X133154819Y-73576785D01*
X133154819Y-73576785D02*
X133154819Y-73195833D01*
X133154819Y-73195833D02*
X133202438Y-73100595D01*
X133202438Y-73100595D02*
X133250057Y-73052976D01*
X133250057Y-73052976D02*
X133345295Y-73005357D01*
X133345295Y-73005357D02*
X133488152Y-73005357D01*
X133488152Y-73005357D02*
X133583390Y-73052976D01*
X133583390Y-73052976D02*
X133631009Y-73100595D01*
X133631009Y-73100595D02*
X133678628Y-73195833D01*
X133678628Y-73195833D02*
X133678628Y-73576785D01*
X133250057Y-72624404D02*
X133202438Y-72576785D01*
X133202438Y-72576785D02*
X133154819Y-72481547D01*
X133154819Y-72481547D02*
X133154819Y-72243452D01*
X133154819Y-72243452D02*
X133202438Y-72148214D01*
X133202438Y-72148214D02*
X133250057Y-72100595D01*
X133250057Y-72100595D02*
X133345295Y-72052976D01*
X133345295Y-72052976D02*
X133440533Y-72052976D01*
X133440533Y-72052976D02*
X133583390Y-72100595D01*
X133583390Y-72100595D02*
X134154819Y-72672023D01*
X134154819Y-72672023D02*
X134154819Y-72052976D01*
X133154819Y-71719642D02*
X133154819Y-71052976D01*
X133154819Y-71052976D02*
X134154819Y-71481547D01*
X142038095Y-69404819D02*
X142038095Y-70214342D01*
X142038095Y-70214342D02*
X142085714Y-70309580D01*
X142085714Y-70309580D02*
X142133333Y-70357200D01*
X142133333Y-70357200D02*
X142228571Y-70404819D01*
X142228571Y-70404819D02*
X142419047Y-70404819D01*
X142419047Y-70404819D02*
X142514285Y-70357200D01*
X142514285Y-70357200D02*
X142561904Y-70309580D01*
X142561904Y-70309580D02*
X142609523Y-70214342D01*
X142609523Y-70214342D02*
X142609523Y-69404819D01*
X143514285Y-69738152D02*
X143514285Y-70404819D01*
X143276190Y-69357200D02*
X143038095Y-70071485D01*
X143038095Y-70071485D02*
X143657142Y-70071485D01*
X118288095Y-94374819D02*
X118288095Y-95184342D01*
X118288095Y-95184342D02*
X118335714Y-95279580D01*
X118335714Y-95279580D02*
X118383333Y-95327200D01*
X118383333Y-95327200D02*
X118478571Y-95374819D01*
X118478571Y-95374819D02*
X118669047Y-95374819D01*
X118669047Y-95374819D02*
X118764285Y-95327200D01*
X118764285Y-95327200D02*
X118811904Y-95279580D01*
X118811904Y-95279580D02*
X118859523Y-95184342D01*
X118859523Y-95184342D02*
X118859523Y-94374819D01*
X119859523Y-95374819D02*
X119288095Y-95374819D01*
X119573809Y-95374819D02*
X119573809Y-94374819D01*
X119573809Y-94374819D02*
X119478571Y-94517676D01*
X119478571Y-94517676D02*
X119383333Y-94612914D01*
X119383333Y-94612914D02*
X119288095Y-94660533D01*
X108799333Y-57604819D02*
X108466000Y-57128628D01*
X108227905Y-57604819D02*
X108227905Y-56604819D01*
X108227905Y-56604819D02*
X108608857Y-56604819D01*
X108608857Y-56604819D02*
X108704095Y-56652438D01*
X108704095Y-56652438D02*
X108751714Y-56700057D01*
X108751714Y-56700057D02*
X108799333Y-56795295D01*
X108799333Y-56795295D02*
X108799333Y-56938152D01*
X108799333Y-56938152D02*
X108751714Y-57033390D01*
X108751714Y-57033390D02*
X108704095Y-57081009D01*
X108704095Y-57081009D02*
X108608857Y-57128628D01*
X108608857Y-57128628D02*
X108227905Y-57128628D01*
X109132667Y-56604819D02*
X109799333Y-56604819D01*
X109799333Y-56604819D02*
X109370762Y-57604819D01*
X127184819Y-73105357D02*
X126708628Y-73438690D01*
X127184819Y-73676785D02*
X126184819Y-73676785D01*
X126184819Y-73676785D02*
X126184819Y-73295833D01*
X126184819Y-73295833D02*
X126232438Y-73200595D01*
X126232438Y-73200595D02*
X126280057Y-73152976D01*
X126280057Y-73152976D02*
X126375295Y-73105357D01*
X126375295Y-73105357D02*
X126518152Y-73105357D01*
X126518152Y-73105357D02*
X126613390Y-73152976D01*
X126613390Y-73152976D02*
X126661009Y-73200595D01*
X126661009Y-73200595D02*
X126708628Y-73295833D01*
X126708628Y-73295833D02*
X126708628Y-73676785D01*
X126280057Y-72724404D02*
X126232438Y-72676785D01*
X126232438Y-72676785D02*
X126184819Y-72581547D01*
X126184819Y-72581547D02*
X126184819Y-72343452D01*
X126184819Y-72343452D02*
X126232438Y-72248214D01*
X126232438Y-72248214D02*
X126280057Y-72200595D01*
X126280057Y-72200595D02*
X126375295Y-72152976D01*
X126375295Y-72152976D02*
X126470533Y-72152976D01*
X126470533Y-72152976D02*
X126613390Y-72200595D01*
X126613390Y-72200595D02*
X127184819Y-72772023D01*
X127184819Y-72772023D02*
X127184819Y-72152976D01*
X126184819Y-71248214D02*
X126184819Y-71724404D01*
X126184819Y-71724404D02*
X126661009Y-71772023D01*
X126661009Y-71772023D02*
X126613390Y-71724404D01*
X126613390Y-71724404D02*
X126565771Y-71629166D01*
X126565771Y-71629166D02*
X126565771Y-71391071D01*
X126565771Y-71391071D02*
X126613390Y-71295833D01*
X126613390Y-71295833D02*
X126661009Y-71248214D01*
X126661009Y-71248214D02*
X126756247Y-71200595D01*
X126756247Y-71200595D02*
X126994342Y-71200595D01*
X126994342Y-71200595D02*
X127089580Y-71248214D01*
X127089580Y-71248214D02*
X127137200Y-71295833D01*
X127137200Y-71295833D02*
X127184819Y-71391071D01*
X127184819Y-71391071D02*
X127184819Y-71629166D01*
X127184819Y-71629166D02*
X127137200Y-71724404D01*
X127137200Y-71724404D02*
X127089580Y-71772023D01*
X127334819Y-57030357D02*
X126858628Y-57363690D01*
X127334819Y-57601785D02*
X126334819Y-57601785D01*
X126334819Y-57601785D02*
X126334819Y-57220833D01*
X126334819Y-57220833D02*
X126382438Y-57125595D01*
X126382438Y-57125595D02*
X126430057Y-57077976D01*
X126430057Y-57077976D02*
X126525295Y-57030357D01*
X126525295Y-57030357D02*
X126668152Y-57030357D01*
X126668152Y-57030357D02*
X126763390Y-57077976D01*
X126763390Y-57077976D02*
X126811009Y-57125595D01*
X126811009Y-57125595D02*
X126858628Y-57220833D01*
X126858628Y-57220833D02*
X126858628Y-57601785D01*
X126430057Y-56649404D02*
X126382438Y-56601785D01*
X126382438Y-56601785D02*
X126334819Y-56506547D01*
X126334819Y-56506547D02*
X126334819Y-56268452D01*
X126334819Y-56268452D02*
X126382438Y-56173214D01*
X126382438Y-56173214D02*
X126430057Y-56125595D01*
X126430057Y-56125595D02*
X126525295Y-56077976D01*
X126525295Y-56077976D02*
X126620533Y-56077976D01*
X126620533Y-56077976D02*
X126763390Y-56125595D01*
X126763390Y-56125595D02*
X127334819Y-56697023D01*
X127334819Y-56697023D02*
X127334819Y-56077976D01*
X127334819Y-55125595D02*
X127334819Y-55697023D01*
X127334819Y-55411309D02*
X126334819Y-55411309D01*
X126334819Y-55411309D02*
X126477676Y-55506547D01*
X126477676Y-55506547D02*
X126572914Y-55601785D01*
X126572914Y-55601785D02*
X126620533Y-55697023D01*
X108327580Y-69791665D02*
X108375200Y-69839284D01*
X108375200Y-69839284D02*
X108422819Y-69982141D01*
X108422819Y-69982141D02*
X108422819Y-70077379D01*
X108422819Y-70077379D02*
X108375200Y-70220236D01*
X108375200Y-70220236D02*
X108279961Y-70315474D01*
X108279961Y-70315474D02*
X108184723Y-70363093D01*
X108184723Y-70363093D02*
X107994247Y-70410712D01*
X107994247Y-70410712D02*
X107851390Y-70410712D01*
X107851390Y-70410712D02*
X107660914Y-70363093D01*
X107660914Y-70363093D02*
X107565676Y-70315474D01*
X107565676Y-70315474D02*
X107470438Y-70220236D01*
X107470438Y-70220236D02*
X107422819Y-70077379D01*
X107422819Y-70077379D02*
X107422819Y-69982141D01*
X107422819Y-69982141D02*
X107470438Y-69839284D01*
X107470438Y-69839284D02*
X107518057Y-69791665D01*
X108422819Y-69315474D02*
X108422819Y-69124998D01*
X108422819Y-69124998D02*
X108375200Y-69029760D01*
X108375200Y-69029760D02*
X108327580Y-68982141D01*
X108327580Y-68982141D02*
X108184723Y-68886903D01*
X108184723Y-68886903D02*
X107994247Y-68839284D01*
X107994247Y-68839284D02*
X107613295Y-68839284D01*
X107613295Y-68839284D02*
X107518057Y-68886903D01*
X107518057Y-68886903D02*
X107470438Y-68934522D01*
X107470438Y-68934522D02*
X107422819Y-69029760D01*
X107422819Y-69029760D02*
X107422819Y-69220236D01*
X107422819Y-69220236D02*
X107470438Y-69315474D01*
X107470438Y-69315474D02*
X107518057Y-69363093D01*
X107518057Y-69363093D02*
X107613295Y-69410712D01*
X107613295Y-69410712D02*
X107851390Y-69410712D01*
X107851390Y-69410712D02*
X107946628Y-69363093D01*
X107946628Y-69363093D02*
X107994247Y-69315474D01*
X107994247Y-69315474D02*
X108041866Y-69220236D01*
X108041866Y-69220236D02*
X108041866Y-69029760D01*
X108041866Y-69029760D02*
X107994247Y-68934522D01*
X107994247Y-68934522D02*
X107946628Y-68886903D01*
X107946628Y-68886903D02*
X107851390Y-68839284D01*
X130897333Y-81435580D02*
X130849714Y-81483200D01*
X130849714Y-81483200D02*
X130706857Y-81530819D01*
X130706857Y-81530819D02*
X130611619Y-81530819D01*
X130611619Y-81530819D02*
X130468762Y-81483200D01*
X130468762Y-81483200D02*
X130373524Y-81387961D01*
X130373524Y-81387961D02*
X130325905Y-81292723D01*
X130325905Y-81292723D02*
X130278286Y-81102247D01*
X130278286Y-81102247D02*
X130278286Y-80959390D01*
X130278286Y-80959390D02*
X130325905Y-80768914D01*
X130325905Y-80768914D02*
X130373524Y-80673676D01*
X130373524Y-80673676D02*
X130468762Y-80578438D01*
X130468762Y-80578438D02*
X130611619Y-80530819D01*
X130611619Y-80530819D02*
X130706857Y-80530819D01*
X130706857Y-80530819D02*
X130849714Y-80578438D01*
X130849714Y-80578438D02*
X130897333Y-80626057D01*
X131278286Y-80626057D02*
X131325905Y-80578438D01*
X131325905Y-80578438D02*
X131421143Y-80530819D01*
X131421143Y-80530819D02*
X131659238Y-80530819D01*
X131659238Y-80530819D02*
X131754476Y-80578438D01*
X131754476Y-80578438D02*
X131802095Y-80626057D01*
X131802095Y-80626057D02*
X131849714Y-80721295D01*
X131849714Y-80721295D02*
X131849714Y-80816533D01*
X131849714Y-80816533D02*
X131802095Y-80959390D01*
X131802095Y-80959390D02*
X131230667Y-81530819D01*
X131230667Y-81530819D02*
X131849714Y-81530819D01*
X123154819Y-56942857D02*
X122678628Y-57276190D01*
X123154819Y-57514285D02*
X122154819Y-57514285D01*
X122154819Y-57514285D02*
X122154819Y-57133333D01*
X122154819Y-57133333D02*
X122202438Y-57038095D01*
X122202438Y-57038095D02*
X122250057Y-56990476D01*
X122250057Y-56990476D02*
X122345295Y-56942857D01*
X122345295Y-56942857D02*
X122488152Y-56942857D01*
X122488152Y-56942857D02*
X122583390Y-56990476D01*
X122583390Y-56990476D02*
X122631009Y-57038095D01*
X122631009Y-57038095D02*
X122678628Y-57133333D01*
X122678628Y-57133333D02*
X122678628Y-57514285D01*
X122488152Y-56085714D02*
X123154819Y-56085714D01*
X122107200Y-56323809D02*
X122821485Y-56561904D01*
X122821485Y-56561904D02*
X122821485Y-55942857D01*
X122154819Y-55371428D02*
X122154819Y-55276190D01*
X122154819Y-55276190D02*
X122202438Y-55180952D01*
X122202438Y-55180952D02*
X122250057Y-55133333D01*
X122250057Y-55133333D02*
X122345295Y-55085714D01*
X122345295Y-55085714D02*
X122535771Y-55038095D01*
X122535771Y-55038095D02*
X122773866Y-55038095D01*
X122773866Y-55038095D02*
X122964342Y-55085714D01*
X122964342Y-55085714D02*
X123059580Y-55133333D01*
X123059580Y-55133333D02*
X123107200Y-55180952D01*
X123107200Y-55180952D02*
X123154819Y-55276190D01*
X123154819Y-55276190D02*
X123154819Y-55371428D01*
X123154819Y-55371428D02*
X123107200Y-55466666D01*
X123107200Y-55466666D02*
X123059580Y-55514285D01*
X123059580Y-55514285D02*
X122964342Y-55561904D01*
X122964342Y-55561904D02*
X122773866Y-55609523D01*
X122773866Y-55609523D02*
X122535771Y-55609523D01*
X122535771Y-55609523D02*
X122345295Y-55561904D01*
X122345295Y-55561904D02*
X122250057Y-55514285D01*
X122250057Y-55514285D02*
X122202438Y-55466666D01*
X122202438Y-55466666D02*
X122154819Y-55371428D01*
D12*
X126610000Y-96130000D02*
X127940000Y-96130000D01*
X126610000Y-97460000D02*
X126610000Y-96130000D01*
X129210000Y-96130000D02*
X147050000Y-96130000D01*
X129210000Y-98790000D02*
X129210000Y-96130000D01*
X129210000Y-98790000D02*
X147050000Y-98790000D01*
X147050000Y-98790000D02*
X147050000Y-96130000D01*
X149470000Y-96130000D02*
X150800000Y-96130000D01*
X149470000Y-97460000D02*
X149470000Y-96130000D01*
X152070000Y-96130000D02*
X164830000Y-96130000D01*
X152070000Y-98790000D02*
X152070000Y-96130000D01*
X152070000Y-98790000D02*
X164830000Y-98790000D01*
X164830000Y-98790000D02*
X164830000Y-96130000D01*
X117466000Y-47870000D02*
X118796000Y-47870000D01*
X117466000Y-49200000D02*
X117466000Y-47870000D01*
X120066000Y-47870000D02*
X142986000Y-47870000D01*
X120066000Y-50530000D02*
X120066000Y-47870000D01*
X120066000Y-50530000D02*
X142986000Y-50530000D01*
X142986000Y-50530000D02*
X142986000Y-47870000D01*
X144390000Y-47870000D02*
X145720000Y-47870000D01*
X144390000Y-49200000D02*
X144390000Y-47870000D01*
X146990000Y-47870000D02*
X164830000Y-47870000D01*
X146990000Y-50530000D02*
X146990000Y-47870000D01*
X146990000Y-50530000D02*
X164830000Y-50530000D01*
X164830000Y-50530000D02*
X164830000Y-47870000D01*
X132500000Y-60989564D02*
X132500000Y-59535436D01*
X134320000Y-60989564D02*
X134320000Y-59535436D01*
X105020000Y-50530000D02*
X105020000Y-49200000D01*
X106350000Y-50530000D02*
X105020000Y-50530000D01*
X107620000Y-47870000D02*
X115300000Y-47870000D01*
X107620000Y-50530000D02*
X107620000Y-47870000D01*
X107620000Y-50530000D02*
X115300000Y-50530000D01*
X115300000Y-50530000D02*
X115300000Y-47870000D01*
X142138748Y-56640000D02*
X143561252Y-56640000D01*
X142138748Y-58460000D02*
X143561252Y-58460000D01*
X147640000Y-68989564D02*
X147640000Y-67535436D01*
X149460000Y-68989564D02*
X149460000Y-67535436D01*
X145140000Y-84801064D02*
X145140000Y-83346936D01*
X146960000Y-84801064D02*
X146960000Y-83346936D01*
X144465000Y-87456000D02*
X144465000Y-91516000D01*
X147635000Y-87456000D02*
X144465000Y-87456000D01*
X147635000Y-91516000D02*
X147635000Y-87456000D01*
X142600000Y-84801064D02*
X142600000Y-83346936D01*
X144420000Y-84801064D02*
X144420000Y-83346936D01*
X129210000Y-59535436D02*
X129210000Y-60989564D01*
X131030000Y-59535436D02*
X131030000Y-60989564D01*
X120840000Y-73788748D02*
X120840000Y-75211252D01*
X122660000Y-73788748D02*
X122660000Y-75211252D01*
X161940000Y-52033001D02*
X168260000Y-52033001D01*
X161940000Y-72934001D02*
X161940000Y-52033001D01*
X161940000Y-72934001D02*
X168260000Y-72934001D01*
X162400000Y-72934001D02*
X162400000Y-52033001D01*
X167700000Y-72934001D02*
X167700000Y-52033001D01*
X167760000Y-73174001D02*
X168500000Y-73174001D01*
X168260000Y-72934001D02*
X168260000Y-52033001D01*
X168500000Y-73174001D02*
X168500000Y-72674001D01*
X105262000Y-54575064D02*
X105262000Y-53120936D01*
X107082000Y-54575064D02*
X107082000Y-53120936D01*
X101000000Y-97680000D02*
X101000000Y-98420000D01*
X101000000Y-98420000D02*
X101500000Y-98420000D01*
X101240000Y-91860000D02*
X101240000Y-98180000D01*
X101240000Y-91860000D02*
X111980000Y-91860000D01*
X101240000Y-92320000D02*
X111980000Y-92320000D01*
X101240000Y-97620000D02*
X111980000Y-97620000D01*
X101240000Y-98180000D02*
X111980000Y-98180000D01*
X111980000Y-91860000D02*
X111980000Y-98180000D01*
X150980000Y-60977064D02*
X150980000Y-59522936D01*
X152800000Y-60977064D02*
X152800000Y-59522936D01*
X154220000Y-68989564D02*
X154220000Y-67535436D01*
X156040000Y-68989564D02*
X156040000Y-67535436D01*
X157560000Y-59522936D02*
X157560000Y-60977064D01*
X159380000Y-59522936D02*
X159380000Y-60977064D01*
X114400000Y-85650000D02*
X108890000Y-85650000D01*
X114400000Y-88950000D02*
X108890000Y-88950000D01*
X114400000Y-88950000D02*
X114400000Y-85650000D01*
X114977499Y-70175000D02*
X114977500Y-69525000D01*
X114977499Y-70175000D02*
X114977500Y-70825000D01*
X118097501Y-70175000D02*
X118097500Y-69525000D01*
X118097501Y-70175000D02*
X118097500Y-70825000D01*
X115027500Y-71337500D02*
X114697500Y-71577500D01*
X114697501Y-71097500D01*
X115027500Y-71337500D01*
G36*
X115027500Y-71337500D02*
G01*
X114697500Y-71577500D01*
X114697501Y-71097500D01*
X115027500Y-71337500D01*
G37*
X129210000Y-68989564D02*
X129210000Y-67535436D01*
X131030000Y-68989564D02*
X131030000Y-67535436D01*
X135790000Y-59535436D02*
X135790000Y-60989564D01*
X137610000Y-59535436D02*
X137610000Y-60989564D01*
X154270000Y-59522936D02*
X154270000Y-60977064D01*
X156090000Y-59522936D02*
X156090000Y-60977064D01*
X135790000Y-68989564D02*
X135790000Y-67535436D01*
X137610000Y-68989564D02*
X137610000Y-67535436D01*
X109090000Y-73988748D02*
X109090000Y-75411252D01*
X110910000Y-73988748D02*
X110910000Y-75411252D01*
X140147000Y-87456000D02*
X140147000Y-91516000D01*
X143317000Y-87456000D02*
X140147000Y-87456000D01*
X143317000Y-91516000D02*
X143317000Y-87456000D01*
X120840000Y-69711252D02*
X120840000Y-68288748D01*
X122660000Y-69711252D02*
X122660000Y-68288748D01*
X157510000Y-68989564D02*
X157510000Y-67535436D01*
X159330000Y-68989564D02*
X159330000Y-67535436D01*
X150930000Y-67535436D02*
X150930000Y-68989564D01*
X152750000Y-67535436D02*
X152750000Y-68989564D01*
X144983252Y-93324000D02*
X143560748Y-93324000D01*
X144983252Y-95144000D02*
X143560748Y-95144000D01*
X119890000Y-85961252D02*
X119890000Y-84538748D01*
X121710000Y-85961252D02*
X121710000Y-84538748D01*
X161940000Y-80736000D02*
X168260000Y-80736000D01*
X161940000Y-91476000D02*
X161940000Y-80736000D01*
X161940000Y-91476000D02*
X168260000Y-91476000D01*
X162400000Y-91476000D02*
X162400000Y-80736000D01*
X167700000Y-91476000D02*
X167700000Y-80736000D01*
X167760000Y-91716000D02*
X168500000Y-91716000D01*
X168260000Y-91476000D02*
X168260000Y-80736000D01*
X168500000Y-91716000D02*
X168500000Y-91216000D01*
X147690000Y-59522936D02*
X147690000Y-60977064D01*
X149510000Y-59522936D02*
X149510000Y-60977064D01*
X132500000Y-67535436D02*
X132500000Y-68989564D01*
X134320000Y-67535436D02*
X134320000Y-68989564D01*
X142748000Y-59826999D02*
X140798000Y-59827000D01*
X142748000Y-59826999D02*
X144698000Y-59827000D01*
X142748000Y-68697001D02*
X140798000Y-68697000D01*
X142748000Y-68697001D02*
X144698000Y-68697000D01*
X140048000Y-59892000D02*
X139808000Y-59562000D01*
X140288000Y-59562000D01*
X140048000Y-59892000D01*
G36*
X140048000Y-59892000D02*
G01*
X139808000Y-59562000D01*
X140288000Y-59562000D01*
X140048000Y-59892000D01*
G37*
X112992000Y-98187500D02*
X112992000Y-99427500D01*
X112992000Y-99427500D02*
X114232000Y-99427500D01*
X113232000Y-90567500D02*
X113232000Y-99187500D01*
X113232000Y-90567500D02*
X124953000Y-90567500D01*
X113232000Y-99187500D02*
X124953000Y-99187500D01*
X124953000Y-90567500D02*
X124953000Y-99187500D01*
X108056000Y-54575064D02*
X108056000Y-53120936D01*
X109876000Y-54575064D02*
X109876000Y-53120936D01*
X125920000Y-68989564D02*
X125920000Y-67535436D01*
X127740000Y-68989564D02*
X127740000Y-67535436D01*
X125920000Y-59535436D02*
X125920000Y-60989564D01*
X127740000Y-59535436D02*
X127740000Y-60989564D01*
X109090000Y-70336251D02*
X109090000Y-68913747D01*
X110910000Y-70336251D02*
X110910000Y-68913747D01*
X124214000Y-84616000D02*
X125464000Y-84616000D01*
X124839000Y-83991000D02*
X124839000Y-85241000D01*
X125704000Y-83080437D02*
X125704000Y-85866000D01*
X125704000Y-83080437D02*
X126768437Y-82016000D01*
X125704000Y-91671563D02*
X125704000Y-88886000D01*
X125704000Y-91671563D02*
X126768437Y-92736000D01*
X126768437Y-82016000D02*
X136424000Y-82016000D01*
X126768437Y-92736000D02*
X136424000Y-92736000D01*
X136424000Y-82016000D02*
X136424000Y-85866000D01*
X136424000Y-92736000D02*
X136424000Y-88886000D01*
X123610000Y-59535436D02*
X123610000Y-60989564D01*
X121790000Y-59535436D02*
X121790000Y-60989564D01*
%LPC*%
D13*
X127940000Y-97460000D03*
D14*
X130480000Y-97460000D03*
X133020000Y-97460000D03*
X135560000Y-97460000D03*
X138100000Y-97460000D03*
X140640000Y-97460000D03*
X143180000Y-97460000D03*
X145720000Y-97460000D03*
D13*
X150800000Y-97460000D03*
D14*
X153340000Y-97460000D03*
X155880000Y-97460000D03*
X158420000Y-97460000D03*
X160960000Y-97460000D03*
X163500000Y-97460000D03*
D13*
X118796000Y-49200000D03*
D14*
X121336000Y-49200000D03*
X123876000Y-49200000D03*
X126416000Y-49200000D03*
X128956000Y-49200000D03*
X131496000Y-49200000D03*
X134036000Y-49200000D03*
X136576000Y-49200000D03*
X139116000Y-49200000D03*
X141656000Y-49200000D03*
D13*
X145720000Y-49200000D03*
D14*
X148260000Y-49200000D03*
X150800000Y-49200000D03*
X153340000Y-49200000D03*
X155880000Y-49200000D03*
X158420000Y-49200000D03*
X160960000Y-49200000D03*
X163500000Y-49200000D03*
D15*
X133410000Y-61725000D03*
X133410000Y-58800000D03*
D13*
X106350000Y-49200000D03*
D14*
X108890000Y-49200000D03*
X111430000Y-49200000D03*
X113970000Y-49200000D03*
D16*
X141374999Y-57550000D03*
X144325001Y-57550000D03*
D15*
X148550000Y-69725000D03*
X148550000Y-66800000D03*
D17*
X146050000Y-85624000D03*
X146050000Y-82524000D03*
D18*
X146050000Y-88428500D03*
X146050000Y-91403500D03*
D17*
X143510000Y-85624000D03*
X143510000Y-82524000D03*
D19*
X130120000Y-58800000D03*
X130120000Y-61725000D03*
D20*
X121750000Y-73024999D03*
X121750000Y-75975001D03*
D21*
X165100000Y-71374001D03*
D22*
X165100000Y-68834001D03*
X165100000Y-66294002D03*
X165100000Y-63754001D03*
X165100000Y-61214001D03*
X165100000Y-58674001D03*
X165100000Y-56134001D03*
X165100000Y-53594000D03*
D17*
X106172000Y-55398000D03*
X106172000Y-52298000D03*
D21*
X102800000Y-95020000D03*
D22*
X105340000Y-95020000D03*
X107880000Y-95020000D03*
X110420000Y-95020000D03*
D15*
X151890000Y-61712500D03*
X151890000Y-58787500D03*
X155130000Y-69725000D03*
X155130000Y-66800000D03*
D19*
X158470000Y-58787500D03*
X158470000Y-61712500D03*
D23*
X112890000Y-87300000D03*
X108890000Y-87300000D03*
D24*
X115587500Y-71112500D03*
X117487500Y-71112500D03*
X116537500Y-69237499D03*
D15*
X130120000Y-69725000D03*
X130120000Y-66800000D03*
D19*
X136700000Y-58800000D03*
X136700000Y-61725000D03*
X155180000Y-58787500D03*
X155180000Y-61712500D03*
D15*
X136700000Y-69725000D03*
X136700000Y-66800000D03*
D20*
X110000000Y-73224999D03*
X110000000Y-76175001D03*
D18*
X141732000Y-88428500D03*
X141732000Y-91403500D03*
D25*
X121750000Y-70475001D03*
X121750000Y-67524999D03*
D15*
X158420000Y-69725000D03*
X158420000Y-66800000D03*
D19*
X151840000Y-66800000D03*
X151840000Y-69725000D03*
D26*
X145834500Y-94234000D03*
X142709500Y-94234000D03*
D27*
X120800000Y-86812500D03*
X120800000Y-83687500D03*
D21*
X165100000Y-89916000D03*
D22*
X165100000Y-87376000D03*
X165100000Y-84836001D03*
X165100000Y-82296000D03*
D19*
X148600000Y-58787500D03*
X148600000Y-61712500D03*
X133410000Y-66800000D03*
X133410000Y-69725000D03*
D28*
X140273000Y-60452000D03*
X140273000Y-61722000D03*
X140273000Y-62992000D03*
X140273000Y-64262000D03*
X140273000Y-65532000D03*
X140273000Y-66802000D03*
X140273000Y-68072000D03*
X145223000Y-68072000D03*
X145223000Y-66802000D03*
X145223000Y-65532000D03*
X145223000Y-64262000D03*
X145223000Y-62992000D03*
X145223000Y-61722000D03*
X145223000Y-60452000D03*
D29*
X116603000Y-97127500D03*
D30*
X119143000Y-97127500D03*
X121683000Y-97127500D03*
D17*
X108966000Y-55398000D03*
X108966000Y-52298000D03*
D15*
X126830000Y-69725000D03*
X126830000Y-66800000D03*
D19*
X126830000Y-58800000D03*
X126830000Y-61725000D03*
D25*
X110000000Y-71100000D03*
X110000000Y-68149998D03*
D31*
X126864000Y-87376000D03*
X135264000Y-87376000D03*
D19*
X122700000Y-58800000D03*
X122700000Y-61725000D03*
%LPD*%
M02*
